<mxfile host="app.diagrams.net" agent="Mozilla/5.0 (Windows NT 6.1; Win64; x64) AppleWebKit/537.36 (KHTML, like Gecko) Chrome/109.0.0.0 Safari/537.36" version="28.0.7">
  <diagram name="Page-1" id="UHQSsORffXZtqkblsG3w">
    <mxGraphModel dx="2523" dy="1846" grid="1" gridSize="10" guides="1" tooltips="1" connect="1" arrows="1" fold="1" page="1" pageScale="1" pageWidth="850" pageHeight="1100" math="1" shadow="0">
      <root>
        <mxCell id="0" />
        <mxCell id="1" parent="0" />
        <mxCell id="zvVPhW93EorZRx8h_Ae8-29" value="&lt;font style=&quot;font-size: 18px;&quot;&gt;$$PLL_\text{p}$$&lt;/font&gt;" style="text;html=1;align=center;verticalAlign=middle;whiteSpace=wrap;rounded=0;container=0;" vertex="1" parent="1">
          <mxGeometry x="70" y="120" width="60" height="30" as="geometry" />
        </mxCell>
        <mxCell id="zvVPhW93EorZRx8h_Ae8-30" value="&lt;font style=&quot;font-size: 18px;&quot;&gt;$$PLL_\text{m}$$&lt;/font&gt;" style="text;html=1;align=center;verticalAlign=middle;whiteSpace=wrap;rounded=0;container=0;" vertex="1" parent="1">
          <mxGeometry x="70" y="170" width="60" height="30" as="geometry" />
        </mxCell>
        <mxCell id="zvVPhW93EorZRx8h_Ae8-171" value="" style="endArrow=none;html=1;rounded=0;strokeWidth=3;" edge="1" parent="1">
          <mxGeometry width="50" height="50" relative="1" as="geometry">
            <mxPoint x="160" y="440" as="sourcePoint" />
            <mxPoint x="160" y="400" as="targetPoint" />
          </mxGeometry>
        </mxCell>
        <mxCell id="zvVPhW93EorZRx8h_Ae8-172" value="" style="endArrow=none;html=1;rounded=0;strokeWidth=3;" edge="1" parent="1">
          <mxGeometry width="50" height="50" relative="1" as="geometry">
            <mxPoint x="160" y="400" as="sourcePoint" />
            <mxPoint x="120" y="400" as="targetPoint" />
          </mxGeometry>
        </mxCell>
        <mxCell id="zvVPhW93EorZRx8h_Ae8-173" value="" style="endArrow=none;html=1;rounded=0;strokeWidth=3;" edge="1" parent="1">
          <mxGeometry width="50" height="50" relative="1" as="geometry">
            <mxPoint x="199.29" y="520" as="sourcePoint" />
            <mxPoint x="199.29" y="480" as="targetPoint" />
          </mxGeometry>
        </mxCell>
        <mxCell id="zvVPhW93EorZRx8h_Ae8-174" value="" style="endArrow=none;html=1;rounded=0;strokeWidth=3;" edge="1" parent="1">
          <mxGeometry width="50" height="50" relative="1" as="geometry">
            <mxPoint x="199.29" y="480" as="sourcePoint" />
            <mxPoint x="120" y="480" as="targetPoint" />
          </mxGeometry>
        </mxCell>
        <mxCell id="zvVPhW93EorZRx8h_Ae8-175" value="" style="endArrow=none;html=1;rounded=0;strokeWidth=3;" edge="1" parent="1">
          <mxGeometry width="50" height="50" relative="1" as="geometry">
            <mxPoint x="239.28999999999996" y="600" as="sourcePoint" />
            <mxPoint x="239.28999999999996" y="560" as="targetPoint" />
          </mxGeometry>
        </mxCell>
        <mxCell id="zvVPhW93EorZRx8h_Ae8-176" value="" style="endArrow=none;html=1;rounded=0;strokeWidth=3;" edge="1" parent="1">
          <mxGeometry width="50" height="50" relative="1" as="geometry">
            <mxPoint x="239.28999999999996" y="560" as="sourcePoint" />
            <mxPoint x="120" y="560" as="targetPoint" />
          </mxGeometry>
        </mxCell>
        <mxCell id="zvVPhW93EorZRx8h_Ae8-180" value="" style="endArrow=none;html=1;rounded=0;strokeWidth=3;" edge="1" parent="1">
          <mxGeometry width="50" height="50" relative="1" as="geometry">
            <mxPoint x="319.28999999999996" y="760" as="sourcePoint" />
            <mxPoint x="319.28999999999996" y="720" as="targetPoint" />
          </mxGeometry>
        </mxCell>
        <mxCell id="zvVPhW93EorZRx8h_Ae8-181" value="" style="endArrow=none;html=1;rounded=0;strokeWidth=3;" edge="1" parent="1">
          <mxGeometry width="50" height="50" relative="1" as="geometry">
            <mxPoint x="319.28999999999996" y="720" as="sourcePoint" />
            <mxPoint x="160" y="720" as="targetPoint" />
          </mxGeometry>
        </mxCell>
        <mxCell id="zvVPhW93EorZRx8h_Ae8-182" value="" style="endArrow=none;html=1;rounded=0;strokeWidth=3;" edge="1" parent="1">
          <mxGeometry width="50" height="50" relative="1" as="geometry">
            <mxPoint x="160" y="760" as="sourcePoint" />
            <mxPoint x="160" y="720" as="targetPoint" />
          </mxGeometry>
        </mxCell>
        <mxCell id="zvVPhW93EorZRx8h_Ae8-183" value="" style="endArrow=none;html=1;rounded=0;strokeWidth=3;" edge="1" parent="1">
          <mxGeometry width="50" height="50" relative="1" as="geometry">
            <mxPoint x="120" y="760" as="sourcePoint" />
            <mxPoint x="160" y="760" as="targetPoint" />
          </mxGeometry>
        </mxCell>
        <mxCell id="zvVPhW93EorZRx8h_Ae8-184" value="" style="endArrow=none;html=1;rounded=0;strokeWidth=3;" edge="1" parent="1">
          <mxGeometry width="50" height="50" relative="1" as="geometry">
            <mxPoint x="359.28999999999996" y="840" as="sourcePoint" />
            <mxPoint x="359.28999999999996" y="800" as="targetPoint" />
          </mxGeometry>
        </mxCell>
        <mxCell id="zvVPhW93EorZRx8h_Ae8-185" value="" style="endArrow=none;html=1;rounded=0;strokeWidth=3;" edge="1" parent="1">
          <mxGeometry width="50" height="50" relative="1" as="geometry">
            <mxPoint x="359.28999999999996" y="800" as="sourcePoint" />
            <mxPoint x="200" y="800" as="targetPoint" />
          </mxGeometry>
        </mxCell>
        <mxCell id="zvVPhW93EorZRx8h_Ae8-186" value="" style="endArrow=none;html=1;rounded=0;strokeWidth=3;" edge="1" parent="1">
          <mxGeometry width="50" height="50" relative="1" as="geometry">
            <mxPoint x="200" y="840" as="sourcePoint" />
            <mxPoint x="200" y="800" as="targetPoint" />
          </mxGeometry>
        </mxCell>
        <mxCell id="zvVPhW93EorZRx8h_Ae8-187" value="" style="endArrow=none;html=1;rounded=0;strokeWidth=3;" edge="1" parent="1">
          <mxGeometry width="50" height="50" relative="1" as="geometry">
            <mxPoint x="120" y="840" as="sourcePoint" />
            <mxPoint x="200" y="840" as="targetPoint" />
          </mxGeometry>
        </mxCell>
        <mxCell id="zvVPhW93EorZRx8h_Ae8-188" value="" style="endArrow=none;html=1;rounded=0;strokeWidth=3;" edge="1" parent="1">
          <mxGeometry width="50" height="50" relative="1" as="geometry">
            <mxPoint x="399.28999999999996" y="920" as="sourcePoint" />
            <mxPoint x="399.28999999999996" y="880" as="targetPoint" />
          </mxGeometry>
        </mxCell>
        <mxCell id="zvVPhW93EorZRx8h_Ae8-189" value="" style="endArrow=none;html=1;rounded=0;strokeWidth=3;" edge="1" parent="1">
          <mxGeometry width="50" height="50" relative="1" as="geometry">
            <mxPoint x="399.28999999999996" y="880" as="sourcePoint" />
            <mxPoint x="240" y="880" as="targetPoint" />
          </mxGeometry>
        </mxCell>
        <mxCell id="zvVPhW93EorZRx8h_Ae8-190" value="" style="endArrow=none;html=1;rounded=0;strokeWidth=3;" edge="1" parent="1">
          <mxGeometry width="50" height="50" relative="1" as="geometry">
            <mxPoint x="240" y="920" as="sourcePoint" />
            <mxPoint x="240" y="880" as="targetPoint" />
          </mxGeometry>
        </mxCell>
        <mxCell id="zvVPhW93EorZRx8h_Ae8-191" value="" style="endArrow=none;html=1;rounded=0;strokeWidth=3;" edge="1" parent="1">
          <mxGeometry width="50" height="50" relative="1" as="geometry">
            <mxPoint x="120" y="920" as="sourcePoint" />
            <mxPoint x="240" y="920" as="targetPoint" />
          </mxGeometry>
        </mxCell>
        <mxCell id="zvVPhW93EorZRx8h_Ae8-192" value="&lt;font style=&quot;font-size: 18px;&quot;&gt;$$DLL_{0^o}$$&lt;/font&gt;" style="text;html=1;align=center;verticalAlign=middle;whiteSpace=wrap;rounded=0;container=0;" vertex="1" parent="1">
          <mxGeometry x="50" y="320" width="60" height="30" as="geometry" />
        </mxCell>
        <mxCell id="zvVPhW93EorZRx8h_Ae8-193" value="&lt;font style=&quot;font-size: 18px;&quot;&gt;$$DLL_{45^o}$$&lt;/font&gt;" style="text;html=1;align=center;verticalAlign=middle;whiteSpace=wrap;rounded=0;container=0;" vertex="1" parent="1">
          <mxGeometry x="50" y="400" width="60" height="30" as="geometry" />
        </mxCell>
        <mxCell id="zvVPhW93EorZRx8h_Ae8-194" value="&lt;font style=&quot;font-size: 18px;&quot;&gt;$$DLL_{90^o}$$&lt;/font&gt;" style="text;html=1;align=center;verticalAlign=middle;whiteSpace=wrap;rounded=0;container=0;" vertex="1" parent="1">
          <mxGeometry x="50" y="480" width="60" height="30" as="geometry" />
        </mxCell>
        <mxCell id="zvVPhW93EorZRx8h_Ae8-195" value="&lt;font style=&quot;font-size: 18px;&quot;&gt;$$DLL_{135^o}$$&lt;/font&gt;" style="text;html=1;align=center;verticalAlign=middle;whiteSpace=wrap;rounded=0;container=0;" vertex="1" parent="1">
          <mxGeometry x="50" y="560" width="60" height="30" as="geometry" />
        </mxCell>
        <mxCell id="zvVPhW93EorZRx8h_Ae8-196" value="&lt;font style=&quot;font-size: 18px;&quot;&gt;$$DLL_{180^o}$$&lt;/font&gt;" style="text;html=1;align=center;verticalAlign=middle;whiteSpace=wrap;rounded=0;container=0;" vertex="1" parent="1">
          <mxGeometry x="50" y="640" width="60" height="30" as="geometry" />
        </mxCell>
        <mxCell id="zvVPhW93EorZRx8h_Ae8-197" value="&lt;font style=&quot;font-size: 18px;&quot;&gt;$$DLL_{225^o}$$&lt;/font&gt;" style="text;html=1;align=center;verticalAlign=middle;whiteSpace=wrap;rounded=0;container=0;" vertex="1" parent="1">
          <mxGeometry x="50" y="720" width="60" height="30" as="geometry" />
        </mxCell>
        <mxCell id="zvVPhW93EorZRx8h_Ae8-198" value="&lt;font style=&quot;font-size: 18px;&quot;&gt;$$DLL_{270^o}$$&lt;/font&gt;" style="text;html=1;align=center;verticalAlign=middle;whiteSpace=wrap;rounded=0;container=0;" vertex="1" parent="1">
          <mxGeometry x="50" y="800" width="60" height="30" as="geometry" />
        </mxCell>
        <mxCell id="zvVPhW93EorZRx8h_Ae8-199" value="&lt;font style=&quot;font-size: 18px;&quot;&gt;$$DLL_{315^o}$$&lt;/font&gt;" style="text;html=1;align=center;verticalAlign=middle;whiteSpace=wrap;rounded=0;container=0;" vertex="1" parent="1">
          <mxGeometry x="50" y="880" width="60" height="30" as="geometry" />
        </mxCell>
        <mxCell id="zvVPhW93EorZRx8h_Ae8-1" value="" style="endArrow=none;html=1;rounded=0;strokeWidth=3;" edge="1" parent="1">
          <mxGeometry width="50" height="50" relative="1" as="geometry">
            <mxPoint x="120" y="160" as="sourcePoint" />
            <mxPoint x="280" y="160" as="targetPoint" />
          </mxGeometry>
        </mxCell>
        <mxCell id="zvVPhW93EorZRx8h_Ae8-2" value="" style="endArrow=none;html=1;rounded=0;strokeWidth=3;" edge="1" parent="1">
          <mxGeometry width="50" height="50" relative="1" as="geometry">
            <mxPoint x="280" y="160" as="sourcePoint" />
            <mxPoint x="280" y="120" as="targetPoint" />
          </mxGeometry>
        </mxCell>
        <mxCell id="zvVPhW93EorZRx8h_Ae8-3" value="" style="endArrow=none;html=1;rounded=0;strokeWidth=3;" edge="1" parent="1">
          <mxGeometry width="50" height="50" relative="1" as="geometry">
            <mxPoint x="440" y="120" as="sourcePoint" />
            <mxPoint x="280" y="120" as="targetPoint" />
          </mxGeometry>
        </mxCell>
        <mxCell id="zvVPhW93EorZRx8h_Ae8-4" value="" style="endArrow=none;html=1;rounded=0;strokeWidth=3;" edge="1" parent="1">
          <mxGeometry width="50" height="50" relative="1" as="geometry">
            <mxPoint x="440" y="160" as="sourcePoint" />
            <mxPoint x="440" y="120" as="targetPoint" />
          </mxGeometry>
        </mxCell>
        <mxCell id="zvVPhW93EorZRx8h_Ae8-5" value="" style="endArrow=none;html=1;rounded=0;strokeWidth=3;" edge="1" parent="1">
          <mxGeometry width="50" height="50" relative="1" as="geometry">
            <mxPoint x="440" y="160" as="sourcePoint" />
            <mxPoint x="600" y="160" as="targetPoint" />
          </mxGeometry>
        </mxCell>
        <mxCell id="zvVPhW93EorZRx8h_Ae8-6" value="" style="endArrow=none;html=1;rounded=0;strokeWidth=3;" edge="1" parent="1">
          <mxGeometry width="50" height="50" relative="1" as="geometry">
            <mxPoint x="600" y="160" as="sourcePoint" />
            <mxPoint x="600" y="120" as="targetPoint" />
          </mxGeometry>
        </mxCell>
        <mxCell id="zvVPhW93EorZRx8h_Ae8-7" value="" style="endArrow=none;html=1;rounded=0;strokeWidth=3;" edge="1" parent="1">
          <mxGeometry width="50" height="50" relative="1" as="geometry">
            <mxPoint x="760" y="120" as="sourcePoint" />
            <mxPoint x="600" y="120" as="targetPoint" />
          </mxGeometry>
        </mxCell>
        <mxCell id="zvVPhW93EorZRx8h_Ae8-8" value="" style="endArrow=none;html=1;rounded=0;strokeWidth=3;" edge="1" parent="1">
          <mxGeometry width="50" height="50" relative="1" as="geometry">
            <mxPoint x="760" y="160" as="sourcePoint" />
            <mxPoint x="760" y="120" as="targetPoint" />
          </mxGeometry>
        </mxCell>
        <mxCell id="zvVPhW93EorZRx8h_Ae8-9" value="" style="endArrow=none;html=1;rounded=0;strokeWidth=3;" edge="1" parent="1">
          <mxGeometry width="50" height="50" relative="1" as="geometry">
            <mxPoint x="760" y="160" as="sourcePoint" />
            <mxPoint x="920" y="160" as="targetPoint" />
          </mxGeometry>
        </mxCell>
        <mxCell id="zvVPhW93EorZRx8h_Ae8-10" value="" style="endArrow=none;html=1;rounded=0;strokeWidth=3;" edge="1" parent="1">
          <mxGeometry width="50" height="50" relative="1" as="geometry">
            <mxPoint x="920" y="160" as="sourcePoint" />
            <mxPoint x="920" y="120" as="targetPoint" />
          </mxGeometry>
        </mxCell>
        <mxCell id="zvVPhW93EorZRx8h_Ae8-11" value="" style="endArrow=none;html=1;rounded=0;strokeWidth=3;" edge="1" parent="1">
          <mxGeometry width="50" height="50" relative="1" as="geometry">
            <mxPoint x="1080" y="120" as="sourcePoint" />
            <mxPoint x="920" y="120" as="targetPoint" />
          </mxGeometry>
        </mxCell>
        <mxCell id="zvVPhW93EorZRx8h_Ae8-12" value="" style="endArrow=none;html=1;rounded=0;strokeWidth=3;" edge="1" parent="1">
          <mxGeometry width="50" height="50" relative="1" as="geometry">
            <mxPoint x="1080" y="160" as="sourcePoint" />
            <mxPoint x="1080" y="120" as="targetPoint" />
          </mxGeometry>
        </mxCell>
        <mxCell id="zvVPhW93EorZRx8h_Ae8-13" value="" style="endArrow=none;html=1;rounded=0;strokeWidth=3;" edge="1" parent="1">
          <mxGeometry width="50" height="50" relative="1" as="geometry">
            <mxPoint x="1080" y="160" as="sourcePoint" />
            <mxPoint x="1240" y="160" as="targetPoint" />
          </mxGeometry>
        </mxCell>
        <mxCell id="zvVPhW93EorZRx8h_Ae8-16" value="" style="endArrow=none;html=1;rounded=0;strokeWidth=3;" edge="1" parent="1">
          <mxGeometry width="50" height="50" relative="1" as="geometry">
            <mxPoint x="120" y="200" as="sourcePoint" />
            <mxPoint x="280" y="200" as="targetPoint" />
          </mxGeometry>
        </mxCell>
        <mxCell id="zvVPhW93EorZRx8h_Ae8-17" value="" style="endArrow=none;html=1;rounded=0;strokeWidth=3;" edge="1" parent="1">
          <mxGeometry width="50" height="50" relative="1" as="geometry">
            <mxPoint x="280" y="200" as="sourcePoint" />
            <mxPoint x="280" y="240" as="targetPoint" />
          </mxGeometry>
        </mxCell>
        <mxCell id="zvVPhW93EorZRx8h_Ae8-18" value="" style="endArrow=none;html=1;rounded=0;strokeWidth=3;" edge="1" parent="1">
          <mxGeometry width="50" height="50" relative="1" as="geometry">
            <mxPoint x="440" y="240" as="sourcePoint" />
            <mxPoint x="280" y="240" as="targetPoint" />
          </mxGeometry>
        </mxCell>
        <mxCell id="zvVPhW93EorZRx8h_Ae8-19" value="" style="endArrow=none;html=1;rounded=0;strokeWidth=3;" edge="1" parent="1">
          <mxGeometry width="50" height="50" relative="1" as="geometry">
            <mxPoint x="440" y="200" as="sourcePoint" />
            <mxPoint x="440" y="240" as="targetPoint" />
          </mxGeometry>
        </mxCell>
        <mxCell id="zvVPhW93EorZRx8h_Ae8-20" value="" style="endArrow=none;html=1;rounded=0;strokeWidth=3;" edge="1" parent="1">
          <mxGeometry width="50" height="50" relative="1" as="geometry">
            <mxPoint x="440" y="200" as="sourcePoint" />
            <mxPoint x="600" y="200" as="targetPoint" />
          </mxGeometry>
        </mxCell>
        <mxCell id="zvVPhW93EorZRx8h_Ae8-21" value="" style="endArrow=none;html=1;rounded=0;strokeWidth=3;" edge="1" parent="1">
          <mxGeometry width="50" height="50" relative="1" as="geometry">
            <mxPoint x="600" y="200" as="sourcePoint" />
            <mxPoint x="600" y="240" as="targetPoint" />
          </mxGeometry>
        </mxCell>
        <mxCell id="zvVPhW93EorZRx8h_Ae8-22" value="" style="endArrow=none;html=1;rounded=0;strokeWidth=3;" edge="1" parent="1">
          <mxGeometry width="50" height="50" relative="1" as="geometry">
            <mxPoint x="760" y="240" as="sourcePoint" />
            <mxPoint x="600" y="240" as="targetPoint" />
          </mxGeometry>
        </mxCell>
        <mxCell id="zvVPhW93EorZRx8h_Ae8-23" value="" style="endArrow=none;html=1;rounded=0;strokeWidth=3;" edge="1" parent="1">
          <mxGeometry width="50" height="50" relative="1" as="geometry">
            <mxPoint x="760" y="200" as="sourcePoint" />
            <mxPoint x="760" y="240" as="targetPoint" />
          </mxGeometry>
        </mxCell>
        <mxCell id="zvVPhW93EorZRx8h_Ae8-24" value="" style="endArrow=none;html=1;rounded=0;strokeWidth=3;" edge="1" parent="1">
          <mxGeometry width="50" height="50" relative="1" as="geometry">
            <mxPoint x="760" y="200" as="sourcePoint" />
            <mxPoint x="920" y="200" as="targetPoint" />
          </mxGeometry>
        </mxCell>
        <mxCell id="zvVPhW93EorZRx8h_Ae8-25" value="" style="endArrow=none;html=1;rounded=0;strokeWidth=3;" edge="1" parent="1">
          <mxGeometry width="50" height="50" relative="1" as="geometry">
            <mxPoint x="920" y="200" as="sourcePoint" />
            <mxPoint x="920" y="240" as="targetPoint" />
          </mxGeometry>
        </mxCell>
        <mxCell id="zvVPhW93EorZRx8h_Ae8-26" value="" style="endArrow=none;html=1;rounded=0;strokeWidth=3;" edge="1" parent="1">
          <mxGeometry width="50" height="50" relative="1" as="geometry">
            <mxPoint x="1080" y="240" as="sourcePoint" />
            <mxPoint x="920" y="240" as="targetPoint" />
          </mxGeometry>
        </mxCell>
        <mxCell id="zvVPhW93EorZRx8h_Ae8-27" value="" style="endArrow=none;html=1;rounded=0;strokeWidth=3;" edge="1" parent="1">
          <mxGeometry width="50" height="50" relative="1" as="geometry">
            <mxPoint x="1080" y="200" as="sourcePoint" />
            <mxPoint x="1080" y="240" as="targetPoint" />
          </mxGeometry>
        </mxCell>
        <mxCell id="zvVPhW93EorZRx8h_Ae8-28" value="" style="endArrow=none;html=1;rounded=0;strokeWidth=3;" edge="1" parent="1">
          <mxGeometry width="50" height="50" relative="1" as="geometry">
            <mxPoint x="1080" y="200" as="sourcePoint" />
            <mxPoint x="1240" y="200" as="targetPoint" />
          </mxGeometry>
        </mxCell>
        <mxCell id="zvVPhW93EorZRx8h_Ae8-32" value="" style="endArrow=none;html=1;rounded=0;strokeWidth=3;" edge="1" parent="1">
          <mxGeometry width="50" height="50" relative="1" as="geometry">
            <mxPoint x="120" y="360" as="sourcePoint" />
            <mxPoint x="280" y="360" as="targetPoint" />
          </mxGeometry>
        </mxCell>
        <mxCell id="zvVPhW93EorZRx8h_Ae8-33" value="" style="endArrow=none;html=1;rounded=0;strokeWidth=3;" edge="1" parent="1">
          <mxGeometry width="50" height="50" relative="1" as="geometry">
            <mxPoint x="280" y="360" as="sourcePoint" />
            <mxPoint x="280" y="320" as="targetPoint" />
          </mxGeometry>
        </mxCell>
        <mxCell id="zvVPhW93EorZRx8h_Ae8-34" value="" style="endArrow=none;html=1;rounded=0;strokeWidth=3;" edge="1" parent="1">
          <mxGeometry width="50" height="50" relative="1" as="geometry">
            <mxPoint x="440" y="320" as="sourcePoint" />
            <mxPoint x="280" y="320" as="targetPoint" />
          </mxGeometry>
        </mxCell>
        <mxCell id="zvVPhW93EorZRx8h_Ae8-35" value="" style="endArrow=none;html=1;rounded=0;strokeWidth=3;" edge="1" parent="1">
          <mxGeometry width="50" height="50" relative="1" as="geometry">
            <mxPoint x="440" y="360" as="sourcePoint" />
            <mxPoint x="440" y="320" as="targetPoint" />
          </mxGeometry>
        </mxCell>
        <mxCell id="zvVPhW93EorZRx8h_Ae8-36" value="" style="endArrow=none;html=1;rounded=0;strokeWidth=3;" edge="1" parent="1">
          <mxGeometry width="50" height="50" relative="1" as="geometry">
            <mxPoint x="440" y="360" as="sourcePoint" />
            <mxPoint x="600" y="360" as="targetPoint" />
          </mxGeometry>
        </mxCell>
        <mxCell id="zvVPhW93EorZRx8h_Ae8-37" value="" style="endArrow=none;html=1;rounded=0;strokeWidth=3;" edge="1" parent="1">
          <mxGeometry width="50" height="50" relative="1" as="geometry">
            <mxPoint x="600" y="360" as="sourcePoint" />
            <mxPoint x="600" y="320" as="targetPoint" />
          </mxGeometry>
        </mxCell>
        <mxCell id="zvVPhW93EorZRx8h_Ae8-38" value="" style="endArrow=none;html=1;rounded=0;strokeWidth=3;" edge="1" parent="1">
          <mxGeometry width="50" height="50" relative="1" as="geometry">
            <mxPoint x="760" y="320" as="sourcePoint" />
            <mxPoint x="600" y="320" as="targetPoint" />
          </mxGeometry>
        </mxCell>
        <mxCell id="zvVPhW93EorZRx8h_Ae8-39" value="" style="endArrow=none;html=1;rounded=0;strokeWidth=3;" edge="1" parent="1">
          <mxGeometry width="50" height="50" relative="1" as="geometry">
            <mxPoint x="760" y="360" as="sourcePoint" />
            <mxPoint x="760" y="320" as="targetPoint" />
          </mxGeometry>
        </mxCell>
        <mxCell id="zvVPhW93EorZRx8h_Ae8-40" value="" style="endArrow=none;html=1;rounded=0;strokeWidth=3;" edge="1" parent="1">
          <mxGeometry width="50" height="50" relative="1" as="geometry">
            <mxPoint x="760" y="360" as="sourcePoint" />
            <mxPoint x="920" y="360" as="targetPoint" />
          </mxGeometry>
        </mxCell>
        <mxCell id="zvVPhW93EorZRx8h_Ae8-41" value="" style="endArrow=none;html=1;rounded=0;strokeWidth=3;" edge="1" parent="1">
          <mxGeometry width="50" height="50" relative="1" as="geometry">
            <mxPoint x="920" y="360" as="sourcePoint" />
            <mxPoint x="920" y="320" as="targetPoint" />
          </mxGeometry>
        </mxCell>
        <mxCell id="zvVPhW93EorZRx8h_Ae8-42" value="" style="endArrow=none;html=1;rounded=0;strokeWidth=3;" edge="1" parent="1">
          <mxGeometry width="50" height="50" relative="1" as="geometry">
            <mxPoint x="1080" y="320" as="sourcePoint" />
            <mxPoint x="920" y="320" as="targetPoint" />
          </mxGeometry>
        </mxCell>
        <mxCell id="zvVPhW93EorZRx8h_Ae8-43" value="" style="endArrow=none;html=1;rounded=0;strokeWidth=3;" edge="1" parent="1">
          <mxGeometry width="50" height="50" relative="1" as="geometry">
            <mxPoint x="1080" y="360" as="sourcePoint" />
            <mxPoint x="1080" y="320" as="targetPoint" />
          </mxGeometry>
        </mxCell>
        <mxCell id="zvVPhW93EorZRx8h_Ae8-44" value="" style="endArrow=none;html=1;rounded=0;strokeWidth=3;" edge="1" parent="1">
          <mxGeometry width="50" height="50" relative="1" as="geometry">
            <mxPoint x="1080" y="360" as="sourcePoint" />
            <mxPoint x="1240" y="360" as="targetPoint" />
          </mxGeometry>
        </mxCell>
        <mxCell id="zvVPhW93EorZRx8h_Ae8-74" value="" style="endArrow=none;html=1;rounded=0;strokeWidth=3;" edge="1" parent="1">
          <mxGeometry width="50" height="50" relative="1" as="geometry">
            <mxPoint x="160" y="440" as="sourcePoint" />
            <mxPoint x="320" y="440" as="targetPoint" />
          </mxGeometry>
        </mxCell>
        <mxCell id="zvVPhW93EorZRx8h_Ae8-75" value="" style="endArrow=none;html=1;rounded=0;strokeWidth=3;" edge="1" parent="1">
          <mxGeometry width="50" height="50" relative="1" as="geometry">
            <mxPoint x="320" y="440" as="sourcePoint" />
            <mxPoint x="320" y="400" as="targetPoint" />
          </mxGeometry>
        </mxCell>
        <mxCell id="zvVPhW93EorZRx8h_Ae8-76" value="" style="endArrow=none;html=1;rounded=0;strokeWidth=3;" edge="1" parent="1">
          <mxGeometry width="50" height="50" relative="1" as="geometry">
            <mxPoint x="480" y="400" as="sourcePoint" />
            <mxPoint x="320" y="400" as="targetPoint" />
          </mxGeometry>
        </mxCell>
        <mxCell id="zvVPhW93EorZRx8h_Ae8-77" value="" style="endArrow=none;html=1;rounded=0;strokeWidth=3;" edge="1" parent="1">
          <mxGeometry width="50" height="50" relative="1" as="geometry">
            <mxPoint x="480" y="440" as="sourcePoint" />
            <mxPoint x="480" y="400" as="targetPoint" />
          </mxGeometry>
        </mxCell>
        <mxCell id="zvVPhW93EorZRx8h_Ae8-78" value="" style="endArrow=none;html=1;rounded=0;strokeWidth=3;" edge="1" parent="1">
          <mxGeometry width="50" height="50" relative="1" as="geometry">
            <mxPoint x="480" y="440" as="sourcePoint" />
            <mxPoint x="640" y="440" as="targetPoint" />
          </mxGeometry>
        </mxCell>
        <mxCell id="zvVPhW93EorZRx8h_Ae8-79" value="" style="endArrow=none;html=1;rounded=0;strokeWidth=3;" edge="1" parent="1">
          <mxGeometry width="50" height="50" relative="1" as="geometry">
            <mxPoint x="640" y="440" as="sourcePoint" />
            <mxPoint x="640" y="400" as="targetPoint" />
          </mxGeometry>
        </mxCell>
        <mxCell id="zvVPhW93EorZRx8h_Ae8-80" value="" style="endArrow=none;html=1;rounded=0;strokeWidth=3;" edge="1" parent="1">
          <mxGeometry width="50" height="50" relative="1" as="geometry">
            <mxPoint x="800" y="400" as="sourcePoint" />
            <mxPoint x="640" y="400" as="targetPoint" />
          </mxGeometry>
        </mxCell>
        <mxCell id="zvVPhW93EorZRx8h_Ae8-81" value="" style="endArrow=none;html=1;rounded=0;strokeWidth=3;" edge="1" parent="1">
          <mxGeometry width="50" height="50" relative="1" as="geometry">
            <mxPoint x="800" y="440" as="sourcePoint" />
            <mxPoint x="800" y="400" as="targetPoint" />
          </mxGeometry>
        </mxCell>
        <mxCell id="zvVPhW93EorZRx8h_Ae8-82" value="" style="endArrow=none;html=1;rounded=0;strokeWidth=3;" edge="1" parent="1">
          <mxGeometry width="50" height="50" relative="1" as="geometry">
            <mxPoint x="800" y="440" as="sourcePoint" />
            <mxPoint x="960" y="440" as="targetPoint" />
          </mxGeometry>
        </mxCell>
        <mxCell id="zvVPhW93EorZRx8h_Ae8-83" value="" style="endArrow=none;html=1;rounded=0;strokeWidth=3;" edge="1" parent="1">
          <mxGeometry width="50" height="50" relative="1" as="geometry">
            <mxPoint x="960" y="440" as="sourcePoint" />
            <mxPoint x="960" y="400" as="targetPoint" />
          </mxGeometry>
        </mxCell>
        <mxCell id="zvVPhW93EorZRx8h_Ae8-84" value="" style="endArrow=none;html=1;rounded=0;strokeWidth=3;" edge="1" parent="1">
          <mxGeometry width="50" height="50" relative="1" as="geometry">
            <mxPoint x="1120" y="400" as="sourcePoint" />
            <mxPoint x="960" y="400" as="targetPoint" />
          </mxGeometry>
        </mxCell>
        <mxCell id="zvVPhW93EorZRx8h_Ae8-85" value="" style="endArrow=none;html=1;rounded=0;strokeWidth=3;" edge="1" parent="1">
          <mxGeometry width="50" height="50" relative="1" as="geometry">
            <mxPoint x="1120" y="440" as="sourcePoint" />
            <mxPoint x="1120" y="400" as="targetPoint" />
          </mxGeometry>
        </mxCell>
        <mxCell id="zvVPhW93EorZRx8h_Ae8-86" value="" style="endArrow=none;html=1;rounded=0;strokeWidth=3;" edge="1" parent="1">
          <mxGeometry width="50" height="50" relative="1" as="geometry">
            <mxPoint x="1120" y="440" as="sourcePoint" />
            <mxPoint x="1240" y="440" as="targetPoint" />
          </mxGeometry>
        </mxCell>
        <mxCell id="zvVPhW93EorZRx8h_Ae8-88" value="" style="endArrow=none;html=1;rounded=0;strokeWidth=3;" edge="1" parent="1">
          <mxGeometry width="50" height="50" relative="1" as="geometry">
            <mxPoint x="200" y="520" as="sourcePoint" />
            <mxPoint x="360" y="520" as="targetPoint" />
          </mxGeometry>
        </mxCell>
        <mxCell id="zvVPhW93EorZRx8h_Ae8-89" value="" style="endArrow=none;html=1;rounded=0;strokeWidth=3;" edge="1" parent="1">
          <mxGeometry width="50" height="50" relative="1" as="geometry">
            <mxPoint x="360" y="520" as="sourcePoint" />
            <mxPoint x="360" y="480" as="targetPoint" />
          </mxGeometry>
        </mxCell>
        <mxCell id="zvVPhW93EorZRx8h_Ae8-90" value="" style="endArrow=none;html=1;rounded=0;strokeWidth=3;" edge="1" parent="1">
          <mxGeometry width="50" height="50" relative="1" as="geometry">
            <mxPoint x="520" y="480" as="sourcePoint" />
            <mxPoint x="360" y="480" as="targetPoint" />
          </mxGeometry>
        </mxCell>
        <mxCell id="zvVPhW93EorZRx8h_Ae8-91" value="" style="endArrow=none;html=1;rounded=0;strokeWidth=3;" edge="1" parent="1">
          <mxGeometry width="50" height="50" relative="1" as="geometry">
            <mxPoint x="520" y="520" as="sourcePoint" />
            <mxPoint x="520" y="480" as="targetPoint" />
          </mxGeometry>
        </mxCell>
        <mxCell id="zvVPhW93EorZRx8h_Ae8-92" value="" style="endArrow=none;html=1;rounded=0;strokeWidth=3;" edge="1" parent="1">
          <mxGeometry width="50" height="50" relative="1" as="geometry">
            <mxPoint x="520" y="520" as="sourcePoint" />
            <mxPoint x="680" y="520" as="targetPoint" />
          </mxGeometry>
        </mxCell>
        <mxCell id="zvVPhW93EorZRx8h_Ae8-93" value="" style="endArrow=none;html=1;rounded=0;strokeWidth=3;" edge="1" parent="1">
          <mxGeometry width="50" height="50" relative="1" as="geometry">
            <mxPoint x="680" y="520" as="sourcePoint" />
            <mxPoint x="680" y="480" as="targetPoint" />
          </mxGeometry>
        </mxCell>
        <mxCell id="zvVPhW93EorZRx8h_Ae8-94" value="" style="endArrow=none;html=1;rounded=0;strokeWidth=3;" edge="1" parent="1">
          <mxGeometry width="50" height="50" relative="1" as="geometry">
            <mxPoint x="840" y="480" as="sourcePoint" />
            <mxPoint x="680" y="480" as="targetPoint" />
          </mxGeometry>
        </mxCell>
        <mxCell id="zvVPhW93EorZRx8h_Ae8-95" value="" style="endArrow=none;html=1;rounded=0;strokeWidth=3;" edge="1" parent="1">
          <mxGeometry width="50" height="50" relative="1" as="geometry">
            <mxPoint x="840" y="520" as="sourcePoint" />
            <mxPoint x="840" y="480" as="targetPoint" />
          </mxGeometry>
        </mxCell>
        <mxCell id="zvVPhW93EorZRx8h_Ae8-96" value="" style="endArrow=none;html=1;rounded=0;strokeWidth=3;" edge="1" parent="1">
          <mxGeometry width="50" height="50" relative="1" as="geometry">
            <mxPoint x="840" y="520" as="sourcePoint" />
            <mxPoint x="1000" y="520" as="targetPoint" />
          </mxGeometry>
        </mxCell>
        <mxCell id="zvVPhW93EorZRx8h_Ae8-97" value="" style="endArrow=none;html=1;rounded=0;strokeWidth=3;" edge="1" parent="1">
          <mxGeometry width="50" height="50" relative="1" as="geometry">
            <mxPoint x="1000" y="520" as="sourcePoint" />
            <mxPoint x="1000" y="480" as="targetPoint" />
          </mxGeometry>
        </mxCell>
        <mxCell id="zvVPhW93EorZRx8h_Ae8-98" value="" style="endArrow=none;html=1;rounded=0;strokeWidth=3;" edge="1" parent="1">
          <mxGeometry width="50" height="50" relative="1" as="geometry">
            <mxPoint x="1160" y="480" as="sourcePoint" />
            <mxPoint x="1000" y="480" as="targetPoint" />
          </mxGeometry>
        </mxCell>
        <mxCell id="zvVPhW93EorZRx8h_Ae8-99" value="" style="endArrow=none;html=1;rounded=0;strokeWidth=3;" edge="1" parent="1">
          <mxGeometry width="50" height="50" relative="1" as="geometry">
            <mxPoint x="1160" y="520" as="sourcePoint" />
            <mxPoint x="1160" y="480" as="targetPoint" />
          </mxGeometry>
        </mxCell>
        <mxCell id="zvVPhW93EorZRx8h_Ae8-100" value="" style="endArrow=none;html=1;rounded=0;strokeWidth=3;" edge="1" parent="1">
          <mxGeometry width="50" height="50" relative="1" as="geometry">
            <mxPoint x="1160" y="520" as="sourcePoint" />
            <mxPoint x="1240" y="520" as="targetPoint" />
          </mxGeometry>
        </mxCell>
        <mxCell id="zvVPhW93EorZRx8h_Ae8-102" value="" style="endArrow=none;html=1;rounded=0;strokeWidth=3;" edge="1" parent="1">
          <mxGeometry width="50" height="50" relative="1" as="geometry">
            <mxPoint x="240" y="600" as="sourcePoint" />
            <mxPoint x="400" y="600" as="targetPoint" />
          </mxGeometry>
        </mxCell>
        <mxCell id="zvVPhW93EorZRx8h_Ae8-103" value="" style="endArrow=none;html=1;rounded=0;strokeWidth=3;" edge="1" parent="1">
          <mxGeometry width="50" height="50" relative="1" as="geometry">
            <mxPoint x="400" y="600" as="sourcePoint" />
            <mxPoint x="400" y="560" as="targetPoint" />
          </mxGeometry>
        </mxCell>
        <mxCell id="zvVPhW93EorZRx8h_Ae8-104" value="" style="endArrow=none;html=1;rounded=0;strokeWidth=3;" edge="1" parent="1">
          <mxGeometry width="50" height="50" relative="1" as="geometry">
            <mxPoint x="560" y="560" as="sourcePoint" />
            <mxPoint x="400" y="560" as="targetPoint" />
          </mxGeometry>
        </mxCell>
        <mxCell id="zvVPhW93EorZRx8h_Ae8-105" value="" style="endArrow=none;html=1;rounded=0;strokeWidth=3;" edge="1" parent="1">
          <mxGeometry width="50" height="50" relative="1" as="geometry">
            <mxPoint x="560" y="600" as="sourcePoint" />
            <mxPoint x="560" y="560" as="targetPoint" />
          </mxGeometry>
        </mxCell>
        <mxCell id="zvVPhW93EorZRx8h_Ae8-106" value="" style="endArrow=none;html=1;rounded=0;strokeWidth=3;" edge="1" parent="1">
          <mxGeometry width="50" height="50" relative="1" as="geometry">
            <mxPoint x="560" y="600" as="sourcePoint" />
            <mxPoint x="720" y="600" as="targetPoint" />
          </mxGeometry>
        </mxCell>
        <mxCell id="zvVPhW93EorZRx8h_Ae8-107" value="" style="endArrow=none;html=1;rounded=0;strokeWidth=3;" edge="1" parent="1">
          <mxGeometry width="50" height="50" relative="1" as="geometry">
            <mxPoint x="720" y="600" as="sourcePoint" />
            <mxPoint x="720" y="560" as="targetPoint" />
          </mxGeometry>
        </mxCell>
        <mxCell id="zvVPhW93EorZRx8h_Ae8-108" value="" style="endArrow=none;html=1;rounded=0;strokeWidth=3;" edge="1" parent="1">
          <mxGeometry width="50" height="50" relative="1" as="geometry">
            <mxPoint x="880" y="560" as="sourcePoint" />
            <mxPoint x="720" y="560" as="targetPoint" />
          </mxGeometry>
        </mxCell>
        <mxCell id="zvVPhW93EorZRx8h_Ae8-109" value="" style="endArrow=none;html=1;rounded=0;strokeWidth=3;" edge="1" parent="1">
          <mxGeometry width="50" height="50" relative="1" as="geometry">
            <mxPoint x="880" y="600" as="sourcePoint" />
            <mxPoint x="880" y="560" as="targetPoint" />
          </mxGeometry>
        </mxCell>
        <mxCell id="zvVPhW93EorZRx8h_Ae8-110" value="" style="endArrow=none;html=1;rounded=0;strokeWidth=3;" edge="1" parent="1">
          <mxGeometry width="50" height="50" relative="1" as="geometry">
            <mxPoint x="880" y="600" as="sourcePoint" />
            <mxPoint x="1040" y="600" as="targetPoint" />
          </mxGeometry>
        </mxCell>
        <mxCell id="zvVPhW93EorZRx8h_Ae8-111" value="" style="endArrow=none;html=1;rounded=0;strokeWidth=3;" edge="1" parent="1">
          <mxGeometry width="50" height="50" relative="1" as="geometry">
            <mxPoint x="1040" y="600" as="sourcePoint" />
            <mxPoint x="1040" y="560" as="targetPoint" />
          </mxGeometry>
        </mxCell>
        <mxCell id="zvVPhW93EorZRx8h_Ae8-112" value="" style="endArrow=none;html=1;rounded=0;strokeWidth=3;" edge="1" parent="1">
          <mxGeometry width="50" height="50" relative="1" as="geometry">
            <mxPoint x="1200" y="560" as="sourcePoint" />
            <mxPoint x="1040" y="560" as="targetPoint" />
          </mxGeometry>
        </mxCell>
        <mxCell id="zvVPhW93EorZRx8h_Ae8-113" value="" style="endArrow=none;html=1;rounded=0;strokeWidth=3;" edge="1" parent="1">
          <mxGeometry width="50" height="50" relative="1" as="geometry">
            <mxPoint x="1200" y="600" as="sourcePoint" />
            <mxPoint x="1200" y="560" as="targetPoint" />
          </mxGeometry>
        </mxCell>
        <mxCell id="zvVPhW93EorZRx8h_Ae8-114" value="" style="endArrow=none;html=1;rounded=0;strokeWidth=3;" edge="1" parent="1">
          <mxGeometry width="50" height="50" relative="1" as="geometry">
            <mxPoint x="1200" y="600" as="sourcePoint" />
            <mxPoint x="1240" y="600" as="targetPoint" />
          </mxGeometry>
        </mxCell>
        <mxCell id="zvVPhW93EorZRx8h_Ae8-116" value="" style="endArrow=none;html=1;rounded=0;strokeWidth=3;" edge="1" parent="1">
          <mxGeometry width="50" height="50" relative="1" as="geometry">
            <mxPoint x="280" y="680" as="sourcePoint" />
            <mxPoint x="440" y="680" as="targetPoint" />
          </mxGeometry>
        </mxCell>
        <mxCell id="zvVPhW93EorZRx8h_Ae8-117" value="" style="endArrow=none;html=1;rounded=0;strokeWidth=3;" edge="1" parent="1">
          <mxGeometry width="50" height="50" relative="1" as="geometry">
            <mxPoint x="440" y="680" as="sourcePoint" />
            <mxPoint x="440" y="640" as="targetPoint" />
          </mxGeometry>
        </mxCell>
        <mxCell id="zvVPhW93EorZRx8h_Ae8-118" value="" style="endArrow=none;html=1;rounded=0;strokeWidth=3;" edge="1" parent="1">
          <mxGeometry width="50" height="50" relative="1" as="geometry">
            <mxPoint x="600" y="640" as="sourcePoint" />
            <mxPoint x="440" y="640" as="targetPoint" />
          </mxGeometry>
        </mxCell>
        <mxCell id="zvVPhW93EorZRx8h_Ae8-119" value="" style="endArrow=none;html=1;rounded=0;strokeWidth=3;" edge="1" parent="1">
          <mxGeometry width="50" height="50" relative="1" as="geometry">
            <mxPoint x="600" y="680" as="sourcePoint" />
            <mxPoint x="600" y="640" as="targetPoint" />
          </mxGeometry>
        </mxCell>
        <mxCell id="zvVPhW93EorZRx8h_Ae8-120" value="" style="endArrow=none;html=1;rounded=0;strokeWidth=3;" edge="1" parent="1">
          <mxGeometry width="50" height="50" relative="1" as="geometry">
            <mxPoint x="600" y="680" as="sourcePoint" />
            <mxPoint x="760" y="680" as="targetPoint" />
          </mxGeometry>
        </mxCell>
        <mxCell id="zvVPhW93EorZRx8h_Ae8-121" value="" style="endArrow=none;html=1;rounded=0;strokeWidth=3;" edge="1" parent="1">
          <mxGeometry width="50" height="50" relative="1" as="geometry">
            <mxPoint x="760" y="680" as="sourcePoint" />
            <mxPoint x="760" y="640" as="targetPoint" />
          </mxGeometry>
        </mxCell>
        <mxCell id="zvVPhW93EorZRx8h_Ae8-122" value="" style="endArrow=none;html=1;rounded=0;strokeWidth=3;" edge="1" parent="1">
          <mxGeometry width="50" height="50" relative="1" as="geometry">
            <mxPoint x="920" y="640" as="sourcePoint" />
            <mxPoint x="760" y="640" as="targetPoint" />
          </mxGeometry>
        </mxCell>
        <mxCell id="zvVPhW93EorZRx8h_Ae8-123" value="" style="endArrow=none;html=1;rounded=0;strokeWidth=3;" edge="1" parent="1">
          <mxGeometry width="50" height="50" relative="1" as="geometry">
            <mxPoint x="920" y="680" as="sourcePoint" />
            <mxPoint x="920" y="640" as="targetPoint" />
          </mxGeometry>
        </mxCell>
        <mxCell id="zvVPhW93EorZRx8h_Ae8-124" value="" style="endArrow=none;html=1;rounded=0;strokeWidth=3;" edge="1" parent="1">
          <mxGeometry width="50" height="50" relative="1" as="geometry">
            <mxPoint x="920" y="680" as="sourcePoint" />
            <mxPoint x="1080" y="680" as="targetPoint" />
          </mxGeometry>
        </mxCell>
        <mxCell id="zvVPhW93EorZRx8h_Ae8-125" value="" style="endArrow=none;html=1;rounded=0;strokeWidth=3;" edge="1" parent="1">
          <mxGeometry width="50" height="50" relative="1" as="geometry">
            <mxPoint x="1080" y="680" as="sourcePoint" />
            <mxPoint x="1080" y="640" as="targetPoint" />
          </mxGeometry>
        </mxCell>
        <mxCell id="zvVPhW93EorZRx8h_Ae8-126" value="" style="endArrow=none;html=1;rounded=0;strokeWidth=3;" edge="1" parent="1">
          <mxGeometry width="50" height="50" relative="1" as="geometry">
            <mxPoint x="1240" y="640" as="sourcePoint" />
            <mxPoint x="1080" y="640" as="targetPoint" />
          </mxGeometry>
        </mxCell>
        <mxCell id="zvVPhW93EorZRx8h_Ae8-177" value="" style="endArrow=none;html=1;rounded=0;strokeWidth=3;" edge="1" parent="1">
          <mxGeometry width="50" height="50" relative="1" as="geometry">
            <mxPoint x="279.28999999999996" y="680" as="sourcePoint" />
            <mxPoint x="279.28999999999996" y="640" as="targetPoint" />
          </mxGeometry>
        </mxCell>
        <mxCell id="zvVPhW93EorZRx8h_Ae8-178" value="" style="endArrow=none;html=1;rounded=0;strokeWidth=3;" edge="1" parent="1">
          <mxGeometry width="50" height="50" relative="1" as="geometry">
            <mxPoint x="279.28999999999996" y="640" as="sourcePoint" />
            <mxPoint x="120" y="640" as="targetPoint" />
          </mxGeometry>
        </mxCell>
        <mxCell id="zvVPhW93EorZRx8h_Ae8-130" value="" style="endArrow=none;html=1;rounded=0;strokeWidth=3;" edge="1" parent="1">
          <mxGeometry width="50" height="50" relative="1" as="geometry">
            <mxPoint x="320" y="760" as="sourcePoint" />
            <mxPoint x="480" y="760" as="targetPoint" />
          </mxGeometry>
        </mxCell>
        <mxCell id="zvVPhW93EorZRx8h_Ae8-131" value="" style="endArrow=none;html=1;rounded=0;strokeWidth=3;" edge="1" parent="1">
          <mxGeometry width="50" height="50" relative="1" as="geometry">
            <mxPoint x="480" y="760" as="sourcePoint" />
            <mxPoint x="480" y="720" as="targetPoint" />
          </mxGeometry>
        </mxCell>
        <mxCell id="zvVPhW93EorZRx8h_Ae8-132" value="" style="endArrow=none;html=1;rounded=0;strokeWidth=3;" edge="1" parent="1">
          <mxGeometry width="50" height="50" relative="1" as="geometry">
            <mxPoint x="640" y="720" as="sourcePoint" />
            <mxPoint x="480" y="720" as="targetPoint" />
          </mxGeometry>
        </mxCell>
        <mxCell id="zvVPhW93EorZRx8h_Ae8-133" value="" style="endArrow=none;html=1;rounded=0;strokeWidth=3;" edge="1" parent="1">
          <mxGeometry width="50" height="50" relative="1" as="geometry">
            <mxPoint x="640" y="760" as="sourcePoint" />
            <mxPoint x="640" y="720" as="targetPoint" />
          </mxGeometry>
        </mxCell>
        <mxCell id="zvVPhW93EorZRx8h_Ae8-134" value="" style="endArrow=none;html=1;rounded=0;strokeWidth=3;" edge="1" parent="1">
          <mxGeometry width="50" height="50" relative="1" as="geometry">
            <mxPoint x="640" y="760" as="sourcePoint" />
            <mxPoint x="800" y="760" as="targetPoint" />
          </mxGeometry>
        </mxCell>
        <mxCell id="zvVPhW93EorZRx8h_Ae8-135" value="" style="endArrow=none;html=1;rounded=0;strokeWidth=3;" edge="1" parent="1">
          <mxGeometry width="50" height="50" relative="1" as="geometry">
            <mxPoint x="800" y="760" as="sourcePoint" />
            <mxPoint x="800" y="720" as="targetPoint" />
          </mxGeometry>
        </mxCell>
        <mxCell id="zvVPhW93EorZRx8h_Ae8-136" value="" style="endArrow=none;html=1;rounded=0;strokeWidth=3;" edge="1" parent="1">
          <mxGeometry width="50" height="50" relative="1" as="geometry">
            <mxPoint x="960" y="720" as="sourcePoint" />
            <mxPoint x="800" y="720" as="targetPoint" />
          </mxGeometry>
        </mxCell>
        <mxCell id="zvVPhW93EorZRx8h_Ae8-137" value="" style="endArrow=none;html=1;rounded=0;strokeWidth=3;" edge="1" parent="1">
          <mxGeometry width="50" height="50" relative="1" as="geometry">
            <mxPoint x="960" y="760" as="sourcePoint" />
            <mxPoint x="960" y="720" as="targetPoint" />
          </mxGeometry>
        </mxCell>
        <mxCell id="zvVPhW93EorZRx8h_Ae8-138" value="" style="endArrow=none;html=1;rounded=0;strokeWidth=3;" edge="1" parent="1">
          <mxGeometry width="50" height="50" relative="1" as="geometry">
            <mxPoint x="960" y="760" as="sourcePoint" />
            <mxPoint x="1120" y="760" as="targetPoint" />
          </mxGeometry>
        </mxCell>
        <mxCell id="zvVPhW93EorZRx8h_Ae8-139" value="" style="endArrow=none;html=1;rounded=0;strokeWidth=3;" edge="1" parent="1">
          <mxGeometry width="50" height="50" relative="1" as="geometry">
            <mxPoint x="1120" y="760" as="sourcePoint" />
            <mxPoint x="1120" y="720" as="targetPoint" />
          </mxGeometry>
        </mxCell>
        <mxCell id="zvVPhW93EorZRx8h_Ae8-140" value="" style="endArrow=none;html=1;rounded=0;strokeWidth=3;" edge="1" parent="1">
          <mxGeometry width="50" height="50" relative="1" as="geometry">
            <mxPoint x="1240" y="720" as="sourcePoint" />
            <mxPoint x="1120" y="720" as="targetPoint" />
          </mxGeometry>
        </mxCell>
        <mxCell id="zvVPhW93EorZRx8h_Ae8-144" value="" style="endArrow=none;html=1;rounded=0;strokeWidth=3;" edge="1" parent="1">
          <mxGeometry width="50" height="50" relative="1" as="geometry">
            <mxPoint x="360" y="840" as="sourcePoint" />
            <mxPoint x="520" y="840" as="targetPoint" />
          </mxGeometry>
        </mxCell>
        <mxCell id="zvVPhW93EorZRx8h_Ae8-145" value="" style="endArrow=none;html=1;rounded=0;strokeWidth=3;" edge="1" parent="1">
          <mxGeometry width="50" height="50" relative="1" as="geometry">
            <mxPoint x="520" y="840" as="sourcePoint" />
            <mxPoint x="520" y="800" as="targetPoint" />
          </mxGeometry>
        </mxCell>
        <mxCell id="zvVPhW93EorZRx8h_Ae8-146" value="" style="endArrow=none;html=1;rounded=0;strokeWidth=3;" edge="1" parent="1">
          <mxGeometry width="50" height="50" relative="1" as="geometry">
            <mxPoint x="680" y="800" as="sourcePoint" />
            <mxPoint x="520" y="800" as="targetPoint" />
          </mxGeometry>
        </mxCell>
        <mxCell id="zvVPhW93EorZRx8h_Ae8-147" value="" style="endArrow=none;html=1;rounded=0;strokeWidth=3;" edge="1" parent="1">
          <mxGeometry width="50" height="50" relative="1" as="geometry">
            <mxPoint x="680" y="840" as="sourcePoint" />
            <mxPoint x="680" y="800" as="targetPoint" />
          </mxGeometry>
        </mxCell>
        <mxCell id="zvVPhW93EorZRx8h_Ae8-148" value="" style="endArrow=none;html=1;rounded=0;strokeWidth=3;" edge="1" parent="1">
          <mxGeometry width="50" height="50" relative="1" as="geometry">
            <mxPoint x="680" y="840" as="sourcePoint" />
            <mxPoint x="840" y="840" as="targetPoint" />
          </mxGeometry>
        </mxCell>
        <mxCell id="zvVPhW93EorZRx8h_Ae8-149" value="" style="endArrow=none;html=1;rounded=0;strokeWidth=3;" edge="1" parent="1">
          <mxGeometry width="50" height="50" relative="1" as="geometry">
            <mxPoint x="840" y="840" as="sourcePoint" />
            <mxPoint x="840" y="800" as="targetPoint" />
          </mxGeometry>
        </mxCell>
        <mxCell id="zvVPhW93EorZRx8h_Ae8-150" value="" style="endArrow=none;html=1;rounded=0;strokeWidth=3;" edge="1" parent="1">
          <mxGeometry width="50" height="50" relative="1" as="geometry">
            <mxPoint x="1000" y="800" as="sourcePoint" />
            <mxPoint x="840" y="800" as="targetPoint" />
          </mxGeometry>
        </mxCell>
        <mxCell id="zvVPhW93EorZRx8h_Ae8-151" value="" style="endArrow=none;html=1;rounded=0;strokeWidth=3;" edge="1" parent="1">
          <mxGeometry width="50" height="50" relative="1" as="geometry">
            <mxPoint x="1000" y="840" as="sourcePoint" />
            <mxPoint x="1000" y="800" as="targetPoint" />
          </mxGeometry>
        </mxCell>
        <mxCell id="zvVPhW93EorZRx8h_Ae8-152" value="" style="endArrow=none;html=1;rounded=0;strokeWidth=3;" edge="1" parent="1">
          <mxGeometry width="50" height="50" relative="1" as="geometry">
            <mxPoint x="1000" y="840" as="sourcePoint" />
            <mxPoint x="1160" y="840" as="targetPoint" />
          </mxGeometry>
        </mxCell>
        <mxCell id="zvVPhW93EorZRx8h_Ae8-153" value="" style="endArrow=none;html=1;rounded=0;strokeWidth=3;" edge="1" parent="1">
          <mxGeometry width="50" height="50" relative="1" as="geometry">
            <mxPoint x="1160" y="840" as="sourcePoint" />
            <mxPoint x="1160" y="800" as="targetPoint" />
          </mxGeometry>
        </mxCell>
        <mxCell id="zvVPhW93EorZRx8h_Ae8-154" value="" style="endArrow=none;html=1;rounded=0;strokeWidth=3;" edge="1" parent="1">
          <mxGeometry width="50" height="50" relative="1" as="geometry">
            <mxPoint x="1240" y="800" as="sourcePoint" />
            <mxPoint x="1160" y="800" as="targetPoint" />
          </mxGeometry>
        </mxCell>
        <mxCell id="zvVPhW93EorZRx8h_Ae8-158" value="" style="endArrow=none;html=1;rounded=0;strokeWidth=3;" edge="1" parent="1">
          <mxGeometry width="50" height="50" relative="1" as="geometry">
            <mxPoint x="400" y="920" as="sourcePoint" />
            <mxPoint x="560" y="920" as="targetPoint" />
          </mxGeometry>
        </mxCell>
        <mxCell id="zvVPhW93EorZRx8h_Ae8-159" value="" style="endArrow=none;html=1;rounded=0;strokeWidth=3;" edge="1" parent="1">
          <mxGeometry width="50" height="50" relative="1" as="geometry">
            <mxPoint x="560" y="920" as="sourcePoint" />
            <mxPoint x="560" y="880" as="targetPoint" />
          </mxGeometry>
        </mxCell>
        <mxCell id="zvVPhW93EorZRx8h_Ae8-160" value="" style="endArrow=none;html=1;rounded=0;strokeWidth=3;" edge="1" parent="1">
          <mxGeometry width="50" height="50" relative="1" as="geometry">
            <mxPoint x="720" y="880" as="sourcePoint" />
            <mxPoint x="560" y="880" as="targetPoint" />
          </mxGeometry>
        </mxCell>
        <mxCell id="zvVPhW93EorZRx8h_Ae8-161" value="" style="endArrow=none;html=1;rounded=0;strokeWidth=3;" edge="1" parent="1">
          <mxGeometry width="50" height="50" relative="1" as="geometry">
            <mxPoint x="720" y="920" as="sourcePoint" />
            <mxPoint x="720" y="880" as="targetPoint" />
          </mxGeometry>
        </mxCell>
        <mxCell id="zvVPhW93EorZRx8h_Ae8-162" value="" style="endArrow=none;html=1;rounded=0;strokeWidth=3;" edge="1" parent="1">
          <mxGeometry width="50" height="50" relative="1" as="geometry">
            <mxPoint x="720" y="920" as="sourcePoint" />
            <mxPoint x="880" y="920" as="targetPoint" />
          </mxGeometry>
        </mxCell>
        <mxCell id="zvVPhW93EorZRx8h_Ae8-163" value="" style="endArrow=none;html=1;rounded=0;strokeWidth=3;" edge="1" parent="1">
          <mxGeometry width="50" height="50" relative="1" as="geometry">
            <mxPoint x="880" y="920" as="sourcePoint" />
            <mxPoint x="880" y="880" as="targetPoint" />
          </mxGeometry>
        </mxCell>
        <mxCell id="zvVPhW93EorZRx8h_Ae8-164" value="" style="endArrow=none;html=1;rounded=0;strokeWidth=3;" edge="1" parent="1">
          <mxGeometry width="50" height="50" relative="1" as="geometry">
            <mxPoint x="1040" y="880" as="sourcePoint" />
            <mxPoint x="880" y="880" as="targetPoint" />
          </mxGeometry>
        </mxCell>
        <mxCell id="zvVPhW93EorZRx8h_Ae8-165" value="" style="endArrow=none;html=1;rounded=0;strokeWidth=3;" edge="1" parent="1">
          <mxGeometry width="50" height="50" relative="1" as="geometry">
            <mxPoint x="1040" y="920" as="sourcePoint" />
            <mxPoint x="1040" y="880" as="targetPoint" />
          </mxGeometry>
        </mxCell>
        <mxCell id="zvVPhW93EorZRx8h_Ae8-166" value="" style="endArrow=none;html=1;rounded=0;strokeWidth=3;" edge="1" parent="1">
          <mxGeometry width="50" height="50" relative="1" as="geometry">
            <mxPoint x="1040" y="920" as="sourcePoint" />
            <mxPoint x="1200" y="920" as="targetPoint" />
          </mxGeometry>
        </mxCell>
        <mxCell id="zvVPhW93EorZRx8h_Ae8-167" value="" style="endArrow=none;html=1;rounded=0;strokeWidth=3;" edge="1" parent="1">
          <mxGeometry width="50" height="50" relative="1" as="geometry">
            <mxPoint x="1200" y="920" as="sourcePoint" />
            <mxPoint x="1200" y="880" as="targetPoint" />
          </mxGeometry>
        </mxCell>
        <mxCell id="zvVPhW93EorZRx8h_Ae8-168" value="" style="endArrow=none;html=1;rounded=0;strokeWidth=3;" edge="1" parent="1">
          <mxGeometry width="50" height="50" relative="1" as="geometry">
            <mxPoint x="1240" y="880" as="sourcePoint" />
            <mxPoint x="1200" y="880" as="targetPoint" />
          </mxGeometry>
        </mxCell>
        <mxCell id="zvVPhW93EorZRx8h_Ae8-201" value="&lt;font style=&quot;font-size: 18px;&quot;&gt;$$PI_\text{p}$$&lt;/font&gt;" style="text;html=1;align=center;verticalAlign=middle;whiteSpace=wrap;rounded=0;container=0;" vertex="1" parent="1">
          <mxGeometry x="70" y="1000" width="60" height="30" as="geometry" />
        </mxCell>
        <mxCell id="zvVPhW93EorZRx8h_Ae8-202" value="&lt;font style=&quot;font-size: 18px;&quot;&gt;$$PI_\text{m}$$&lt;/font&gt;" style="text;html=1;align=center;verticalAlign=middle;whiteSpace=wrap;rounded=0;container=0;" vertex="1" parent="1">
          <mxGeometry x="70" y="1050" width="60" height="30" as="geometry" />
        </mxCell>
        <mxCell id="zvVPhW93EorZRx8h_Ae8-203" value="" style="endArrow=none;html=1;rounded=0;strokeWidth=3;" edge="1" parent="1">
          <mxGeometry width="50" height="50" relative="1" as="geometry">
            <mxPoint x="120" y="1040" as="sourcePoint" />
            <mxPoint x="280" y="1040" as="targetPoint" />
          </mxGeometry>
        </mxCell>
        <mxCell id="zvVPhW93EorZRx8h_Ae8-204" value="" style="endArrow=none;html=1;rounded=0;strokeWidth=3;" edge="1" parent="1">
          <mxGeometry width="50" height="50" relative="1" as="geometry">
            <mxPoint x="280" y="1040" as="sourcePoint" />
            <mxPoint x="280" y="1000" as="targetPoint" />
          </mxGeometry>
        </mxCell>
        <mxCell id="zvVPhW93EorZRx8h_Ae8-205" value="" style="endArrow=none;html=1;rounded=0;strokeWidth=3;" edge="1" parent="1">
          <mxGeometry width="50" height="50" relative="1" as="geometry">
            <mxPoint x="440" y="1000" as="sourcePoint" />
            <mxPoint x="280" y="1000" as="targetPoint" />
          </mxGeometry>
        </mxCell>
        <mxCell id="zvVPhW93EorZRx8h_Ae8-206" value="" style="endArrow=none;html=1;rounded=0;strokeWidth=3;" edge="1" parent="1">
          <mxGeometry width="50" height="50" relative="1" as="geometry">
            <mxPoint x="440" y="1040" as="sourcePoint" />
            <mxPoint x="440" y="1000" as="targetPoint" />
          </mxGeometry>
        </mxCell>
        <mxCell id="zvVPhW93EorZRx8h_Ae8-207" value="" style="endArrow=none;html=1;rounded=0;strokeWidth=3;" edge="1" parent="1">
          <mxGeometry width="50" height="50" relative="1" as="geometry">
            <mxPoint x="440" y="1040" as="sourcePoint" />
            <mxPoint x="600" y="1040" as="targetPoint" />
          </mxGeometry>
        </mxCell>
        <mxCell id="zvVPhW93EorZRx8h_Ae8-208" value="" style="endArrow=none;html=1;rounded=0;strokeWidth=3;" edge="1" parent="1">
          <mxGeometry width="50" height="50" relative="1" as="geometry">
            <mxPoint x="600" y="1040" as="sourcePoint" />
            <mxPoint x="600" y="1000" as="targetPoint" />
          </mxGeometry>
        </mxCell>
        <mxCell id="zvVPhW93EorZRx8h_Ae8-209" value="" style="endArrow=none;html=1;rounded=0;strokeWidth=3;" edge="1" parent="1">
          <mxGeometry width="50" height="50" relative="1" as="geometry">
            <mxPoint x="760" y="1000" as="sourcePoint" />
            <mxPoint x="600" y="1000" as="targetPoint" />
          </mxGeometry>
        </mxCell>
        <mxCell id="zvVPhW93EorZRx8h_Ae8-210" value="" style="endArrow=none;html=1;rounded=0;strokeWidth=3;" edge="1" parent="1">
          <mxGeometry width="50" height="50" relative="1" as="geometry">
            <mxPoint x="760" y="1040" as="sourcePoint" />
            <mxPoint x="760" y="1000" as="targetPoint" />
          </mxGeometry>
        </mxCell>
        <mxCell id="zvVPhW93EorZRx8h_Ae8-211" value="" style="endArrow=none;html=1;rounded=0;strokeWidth=3;" edge="1" parent="1">
          <mxGeometry width="50" height="50" relative="1" as="geometry">
            <mxPoint x="760" y="1040" as="sourcePoint" />
            <mxPoint x="920" y="1040" as="targetPoint" />
          </mxGeometry>
        </mxCell>
        <mxCell id="zvVPhW93EorZRx8h_Ae8-212" value="" style="endArrow=none;html=1;rounded=0;strokeWidth=3;" edge="1" parent="1">
          <mxGeometry width="50" height="50" relative="1" as="geometry">
            <mxPoint x="920" y="1040" as="sourcePoint" />
            <mxPoint x="920" y="1000" as="targetPoint" />
          </mxGeometry>
        </mxCell>
        <mxCell id="zvVPhW93EorZRx8h_Ae8-213" value="" style="endArrow=none;html=1;rounded=0;strokeWidth=3;" edge="1" parent="1">
          <mxGeometry width="50" height="50" relative="1" as="geometry">
            <mxPoint x="1080" y="1000" as="sourcePoint" />
            <mxPoint x="920" y="1000" as="targetPoint" />
          </mxGeometry>
        </mxCell>
        <mxCell id="zvVPhW93EorZRx8h_Ae8-214" value="" style="endArrow=none;html=1;rounded=0;strokeWidth=3;" edge="1" parent="1">
          <mxGeometry width="50" height="50" relative="1" as="geometry">
            <mxPoint x="1080" y="1040" as="sourcePoint" />
            <mxPoint x="1080" y="1000" as="targetPoint" />
          </mxGeometry>
        </mxCell>
        <mxCell id="zvVPhW93EorZRx8h_Ae8-215" value="" style="endArrow=none;html=1;rounded=0;strokeWidth=3;" edge="1" parent="1">
          <mxGeometry width="50" height="50" relative="1" as="geometry">
            <mxPoint x="1080" y="1040" as="sourcePoint" />
            <mxPoint x="1240" y="1040" as="targetPoint" />
          </mxGeometry>
        </mxCell>
        <mxCell id="zvVPhW93EorZRx8h_Ae8-216" value="" style="endArrow=none;html=1;rounded=0;strokeWidth=3;" edge="1" parent="1">
          <mxGeometry width="50" height="50" relative="1" as="geometry">
            <mxPoint x="120" y="1080" as="sourcePoint" />
            <mxPoint x="280" y="1080" as="targetPoint" />
          </mxGeometry>
        </mxCell>
        <mxCell id="zvVPhW93EorZRx8h_Ae8-217" value="" style="endArrow=none;html=1;rounded=0;strokeWidth=3;" edge="1" parent="1">
          <mxGeometry width="50" height="50" relative="1" as="geometry">
            <mxPoint x="280" y="1080" as="sourcePoint" />
            <mxPoint x="280" y="1120" as="targetPoint" />
          </mxGeometry>
        </mxCell>
        <mxCell id="zvVPhW93EorZRx8h_Ae8-218" value="" style="endArrow=none;html=1;rounded=0;strokeWidth=3;" edge="1" parent="1">
          <mxGeometry width="50" height="50" relative="1" as="geometry">
            <mxPoint x="440" y="1120" as="sourcePoint" />
            <mxPoint x="280" y="1120" as="targetPoint" />
          </mxGeometry>
        </mxCell>
        <mxCell id="zvVPhW93EorZRx8h_Ae8-219" value="" style="endArrow=none;html=1;rounded=0;strokeWidth=3;" edge="1" parent="1">
          <mxGeometry width="50" height="50" relative="1" as="geometry">
            <mxPoint x="440" y="1080" as="sourcePoint" />
            <mxPoint x="440" y="1120" as="targetPoint" />
          </mxGeometry>
        </mxCell>
        <mxCell id="zvVPhW93EorZRx8h_Ae8-220" value="" style="endArrow=none;html=1;rounded=0;strokeWidth=3;" edge="1" parent="1">
          <mxGeometry width="50" height="50" relative="1" as="geometry">
            <mxPoint x="440" y="1080" as="sourcePoint" />
            <mxPoint x="600" y="1080" as="targetPoint" />
          </mxGeometry>
        </mxCell>
        <mxCell id="zvVPhW93EorZRx8h_Ae8-221" value="" style="endArrow=none;html=1;rounded=0;strokeWidth=3;" edge="1" parent="1">
          <mxGeometry width="50" height="50" relative="1" as="geometry">
            <mxPoint x="600" y="1080" as="sourcePoint" />
            <mxPoint x="600" y="1120" as="targetPoint" />
          </mxGeometry>
        </mxCell>
        <mxCell id="zvVPhW93EorZRx8h_Ae8-222" value="" style="endArrow=none;html=1;rounded=0;strokeWidth=3;" edge="1" parent="1">
          <mxGeometry width="50" height="50" relative="1" as="geometry">
            <mxPoint x="760" y="1120" as="sourcePoint" />
            <mxPoint x="600" y="1120" as="targetPoint" />
          </mxGeometry>
        </mxCell>
        <mxCell id="zvVPhW93EorZRx8h_Ae8-223" value="" style="endArrow=none;html=1;rounded=0;strokeWidth=3;" edge="1" parent="1">
          <mxGeometry width="50" height="50" relative="1" as="geometry">
            <mxPoint x="760" y="1080" as="sourcePoint" />
            <mxPoint x="760" y="1120" as="targetPoint" />
          </mxGeometry>
        </mxCell>
        <mxCell id="zvVPhW93EorZRx8h_Ae8-224" value="" style="endArrow=none;html=1;rounded=0;strokeWidth=3;" edge="1" parent="1">
          <mxGeometry width="50" height="50" relative="1" as="geometry">
            <mxPoint x="760" y="1080" as="sourcePoint" />
            <mxPoint x="920" y="1080" as="targetPoint" />
          </mxGeometry>
        </mxCell>
        <mxCell id="zvVPhW93EorZRx8h_Ae8-225" value="" style="endArrow=none;html=1;rounded=0;strokeWidth=3;" edge="1" parent="1">
          <mxGeometry width="50" height="50" relative="1" as="geometry">
            <mxPoint x="920" y="1080" as="sourcePoint" />
            <mxPoint x="920" y="1120" as="targetPoint" />
          </mxGeometry>
        </mxCell>
        <mxCell id="zvVPhW93EorZRx8h_Ae8-226" value="" style="endArrow=none;html=1;rounded=0;strokeWidth=3;" edge="1" parent="1">
          <mxGeometry width="50" height="50" relative="1" as="geometry">
            <mxPoint x="1080" y="1120" as="sourcePoint" />
            <mxPoint x="920" y="1120" as="targetPoint" />
          </mxGeometry>
        </mxCell>
        <mxCell id="zvVPhW93EorZRx8h_Ae8-227" value="" style="endArrow=none;html=1;rounded=0;strokeWidth=3;" edge="1" parent="1">
          <mxGeometry width="50" height="50" relative="1" as="geometry">
            <mxPoint x="1080" y="1080" as="sourcePoint" />
            <mxPoint x="1080" y="1120" as="targetPoint" />
          </mxGeometry>
        </mxCell>
        <mxCell id="zvVPhW93EorZRx8h_Ae8-228" value="" style="endArrow=none;html=1;rounded=0;strokeWidth=3;" edge="1" parent="1">
          <mxGeometry width="50" height="50" relative="1" as="geometry">
            <mxPoint x="1080" y="1080" as="sourcePoint" />
            <mxPoint x="1240" y="1080" as="targetPoint" />
          </mxGeometry>
        </mxCell>
        <mxCell id="zvVPhW93EorZRx8h_Ae8-229" value="" style="endArrow=none;html=1;rounded=0;strokeWidth=3;" edge="1" parent="1">
          <mxGeometry width="50" height="50" relative="1" as="geometry">
            <mxPoint x="120" y="1240" as="sourcePoint" />
            <mxPoint x="280" y="1240" as="targetPoint" />
          </mxGeometry>
        </mxCell>
        <mxCell id="zvVPhW93EorZRx8h_Ae8-230" value="" style="endArrow=none;html=1;rounded=0;strokeWidth=3;" edge="1" parent="1">
          <mxGeometry width="50" height="50" relative="1" as="geometry">
            <mxPoint x="280" y="1240" as="sourcePoint" />
            <mxPoint x="280" y="1200" as="targetPoint" />
          </mxGeometry>
        </mxCell>
        <mxCell id="zvVPhW93EorZRx8h_Ae8-231" value="" style="endArrow=none;html=1;rounded=0;strokeWidth=3;" edge="1" parent="1">
          <mxGeometry width="50" height="50" relative="1" as="geometry">
            <mxPoint x="440" y="1200" as="sourcePoint" />
            <mxPoint x="280" y="1200" as="targetPoint" />
          </mxGeometry>
        </mxCell>
        <mxCell id="zvVPhW93EorZRx8h_Ae8-232" value="" style="endArrow=none;html=1;rounded=0;strokeWidth=3;" edge="1" parent="1">
          <mxGeometry width="50" height="50" relative="1" as="geometry">
            <mxPoint x="440" y="1240" as="sourcePoint" />
            <mxPoint x="440" y="1200" as="targetPoint" />
          </mxGeometry>
        </mxCell>
        <mxCell id="zvVPhW93EorZRx8h_Ae8-233" value="" style="endArrow=none;html=1;rounded=0;strokeWidth=3;" edge="1" parent="1">
          <mxGeometry width="50" height="50" relative="1" as="geometry">
            <mxPoint x="440" y="1240" as="sourcePoint" />
            <mxPoint x="600" y="1240" as="targetPoint" />
          </mxGeometry>
        </mxCell>
        <mxCell id="zvVPhW93EorZRx8h_Ae8-234" value="" style="endArrow=none;html=1;rounded=0;strokeWidth=3;" edge="1" parent="1">
          <mxGeometry width="50" height="50" relative="1" as="geometry">
            <mxPoint x="600" y="1240" as="sourcePoint" />
            <mxPoint x="600" y="1200" as="targetPoint" />
          </mxGeometry>
        </mxCell>
        <mxCell id="zvVPhW93EorZRx8h_Ae8-235" value="" style="endArrow=none;html=1;rounded=0;strokeWidth=3;" edge="1" parent="1">
          <mxGeometry width="50" height="50" relative="1" as="geometry">
            <mxPoint x="760" y="1200" as="sourcePoint" />
            <mxPoint x="600" y="1200" as="targetPoint" />
          </mxGeometry>
        </mxCell>
        <mxCell id="zvVPhW93EorZRx8h_Ae8-236" value="" style="endArrow=none;html=1;rounded=0;strokeWidth=3;" edge="1" parent="1">
          <mxGeometry width="50" height="50" relative="1" as="geometry">
            <mxPoint x="760" y="1240" as="sourcePoint" />
            <mxPoint x="760" y="1200" as="targetPoint" />
          </mxGeometry>
        </mxCell>
        <mxCell id="zvVPhW93EorZRx8h_Ae8-237" value="" style="endArrow=none;html=1;rounded=0;strokeWidth=3;" edge="1" parent="1">
          <mxGeometry width="50" height="50" relative="1" as="geometry">
            <mxPoint x="760" y="1240" as="sourcePoint" />
            <mxPoint x="920" y="1240" as="targetPoint" />
          </mxGeometry>
        </mxCell>
        <mxCell id="zvVPhW93EorZRx8h_Ae8-238" value="" style="endArrow=none;html=1;rounded=0;strokeWidth=3;" edge="1" parent="1">
          <mxGeometry width="50" height="50" relative="1" as="geometry">
            <mxPoint x="920" y="1240" as="sourcePoint" />
            <mxPoint x="920" y="1200" as="targetPoint" />
          </mxGeometry>
        </mxCell>
        <mxCell id="zvVPhW93EorZRx8h_Ae8-239" value="" style="endArrow=none;html=1;rounded=0;strokeWidth=3;" edge="1" parent="1">
          <mxGeometry width="50" height="50" relative="1" as="geometry">
            <mxPoint x="1080" y="1200" as="sourcePoint" />
            <mxPoint x="920" y="1200" as="targetPoint" />
          </mxGeometry>
        </mxCell>
        <mxCell id="zvVPhW93EorZRx8h_Ae8-240" value="" style="endArrow=none;html=1;rounded=0;strokeWidth=3;" edge="1" parent="1">
          <mxGeometry width="50" height="50" relative="1" as="geometry">
            <mxPoint x="1080" y="1240" as="sourcePoint" />
            <mxPoint x="1080" y="1200" as="targetPoint" />
          </mxGeometry>
        </mxCell>
        <mxCell id="zvVPhW93EorZRx8h_Ae8-241" value="" style="endArrow=none;html=1;rounded=0;strokeWidth=3;" edge="1" parent="1">
          <mxGeometry width="50" height="50" relative="1" as="geometry">
            <mxPoint x="1080" y="1240" as="sourcePoint" />
            <mxPoint x="1240" y="1240" as="targetPoint" />
          </mxGeometry>
        </mxCell>
        <mxCell id="zvVPhW93EorZRx8h_Ae8-242" value="" style="endArrow=none;html=1;rounded=0;strokeWidth=3;" edge="1" parent="1">
          <mxGeometry width="50" height="50" relative="1" as="geometry">
            <mxPoint x="120" y="1360" as="sourcePoint" />
            <mxPoint x="280" y="1360" as="targetPoint" />
          </mxGeometry>
        </mxCell>
        <mxCell id="zvVPhW93EorZRx8h_Ae8-243" value="" style="endArrow=none;html=1;rounded=0;strokeWidth=3;" edge="1" parent="1">
          <mxGeometry width="50" height="50" relative="1" as="geometry">
            <mxPoint x="280" y="1360" as="sourcePoint" />
            <mxPoint x="280" y="1400" as="targetPoint" />
          </mxGeometry>
        </mxCell>
        <mxCell id="zvVPhW93EorZRx8h_Ae8-244" value="" style="endArrow=none;html=1;rounded=0;strokeWidth=3;" edge="1" parent="1">
          <mxGeometry width="50" height="50" relative="1" as="geometry">
            <mxPoint x="440" y="1400" as="sourcePoint" />
            <mxPoint x="280" y="1400" as="targetPoint" />
          </mxGeometry>
        </mxCell>
        <mxCell id="zvVPhW93EorZRx8h_Ae8-245" value="" style="endArrow=none;html=1;rounded=0;strokeWidth=3;" edge="1" parent="1">
          <mxGeometry width="50" height="50" relative="1" as="geometry">
            <mxPoint x="440" y="1360" as="sourcePoint" />
            <mxPoint x="440" y="1400" as="targetPoint" />
          </mxGeometry>
        </mxCell>
        <mxCell id="zvVPhW93EorZRx8h_Ae8-246" value="" style="endArrow=none;html=1;rounded=0;strokeWidth=3;" edge="1" parent="1">
          <mxGeometry width="50" height="50" relative="1" as="geometry">
            <mxPoint x="440" y="1360" as="sourcePoint" />
            <mxPoint x="600" y="1360" as="targetPoint" />
          </mxGeometry>
        </mxCell>
        <mxCell id="zvVPhW93EorZRx8h_Ae8-247" value="" style="endArrow=none;html=1;rounded=0;strokeWidth=3;" edge="1" parent="1">
          <mxGeometry width="50" height="50" relative="1" as="geometry">
            <mxPoint x="600" y="1360" as="sourcePoint" />
            <mxPoint x="600" y="1400" as="targetPoint" />
          </mxGeometry>
        </mxCell>
        <mxCell id="zvVPhW93EorZRx8h_Ae8-248" value="" style="endArrow=none;html=1;rounded=0;strokeWidth=3;" edge="1" parent="1">
          <mxGeometry width="50" height="50" relative="1" as="geometry">
            <mxPoint x="760" y="1400" as="sourcePoint" />
            <mxPoint x="600" y="1400" as="targetPoint" />
          </mxGeometry>
        </mxCell>
        <mxCell id="zvVPhW93EorZRx8h_Ae8-249" value="" style="endArrow=none;html=1;rounded=0;strokeWidth=3;" edge="1" parent="1">
          <mxGeometry width="50" height="50" relative="1" as="geometry">
            <mxPoint x="760" y="1360" as="sourcePoint" />
            <mxPoint x="760" y="1400" as="targetPoint" />
          </mxGeometry>
        </mxCell>
        <mxCell id="zvVPhW93EorZRx8h_Ae8-250" value="" style="endArrow=none;html=1;rounded=0;strokeWidth=3;" edge="1" parent="1">
          <mxGeometry width="50" height="50" relative="1" as="geometry">
            <mxPoint x="760" y="1360" as="sourcePoint" />
            <mxPoint x="920" y="1360" as="targetPoint" />
          </mxGeometry>
        </mxCell>
        <mxCell id="zvVPhW93EorZRx8h_Ae8-251" value="" style="endArrow=none;html=1;rounded=0;strokeWidth=3;" edge="1" parent="1">
          <mxGeometry width="50" height="50" relative="1" as="geometry">
            <mxPoint x="920" y="1360" as="sourcePoint" />
            <mxPoint x="920" y="1400" as="targetPoint" />
          </mxGeometry>
        </mxCell>
        <mxCell id="zvVPhW93EorZRx8h_Ae8-252" value="" style="endArrow=none;html=1;rounded=0;strokeWidth=3;" edge="1" parent="1">
          <mxGeometry width="50" height="50" relative="1" as="geometry">
            <mxPoint x="1080" y="1400" as="sourcePoint" />
            <mxPoint x="920" y="1400" as="targetPoint" />
          </mxGeometry>
        </mxCell>
        <mxCell id="zvVPhW93EorZRx8h_Ae8-253" value="" style="endArrow=none;html=1;rounded=0;strokeWidth=3;" edge="1" parent="1">
          <mxGeometry width="50" height="50" relative="1" as="geometry">
            <mxPoint x="1080" y="1360" as="sourcePoint" />
            <mxPoint x="1080" y="1400" as="targetPoint" />
          </mxGeometry>
        </mxCell>
        <mxCell id="zvVPhW93EorZRx8h_Ae8-254" value="" style="endArrow=none;html=1;rounded=0;strokeWidth=3;" edge="1" parent="1">
          <mxGeometry width="50" height="50" relative="1" as="geometry">
            <mxPoint x="1080" y="1360" as="sourcePoint" />
            <mxPoint x="1240" y="1360" as="targetPoint" />
          </mxGeometry>
        </mxCell>
        <mxCell id="zvVPhW93EorZRx8h_Ae8-255" value="" style="endArrow=none;html=1;rounded=0;strokeWidth=3;" edge="1" parent="1">
          <mxGeometry width="50" height="50" relative="1" as="geometry">
            <mxPoint x="200" y="1320" as="sourcePoint" />
            <mxPoint x="360" y="1320" as="targetPoint" />
          </mxGeometry>
        </mxCell>
        <mxCell id="zvVPhW93EorZRx8h_Ae8-256" value="" style="endArrow=none;html=1;rounded=0;strokeWidth=3;" edge="1" parent="1">
          <mxGeometry width="50" height="50" relative="1" as="geometry">
            <mxPoint x="360" y="1320" as="sourcePoint" />
            <mxPoint x="360" y="1280" as="targetPoint" />
          </mxGeometry>
        </mxCell>
        <mxCell id="zvVPhW93EorZRx8h_Ae8-257" value="" style="endArrow=none;html=1;rounded=0;strokeWidth=3;" edge="1" parent="1">
          <mxGeometry width="50" height="50" relative="1" as="geometry">
            <mxPoint x="520" y="1280" as="sourcePoint" />
            <mxPoint x="360" y="1280" as="targetPoint" />
          </mxGeometry>
        </mxCell>
        <mxCell id="zvVPhW93EorZRx8h_Ae8-258" value="" style="endArrow=none;html=1;rounded=0;strokeWidth=3;" edge="1" parent="1">
          <mxGeometry width="50" height="50" relative="1" as="geometry">
            <mxPoint x="520" y="1320" as="sourcePoint" />
            <mxPoint x="520" y="1280" as="targetPoint" />
          </mxGeometry>
        </mxCell>
        <mxCell id="zvVPhW93EorZRx8h_Ae8-259" value="" style="endArrow=none;html=1;rounded=0;strokeWidth=3;" edge="1" parent="1">
          <mxGeometry width="50" height="50" relative="1" as="geometry">
            <mxPoint x="520" y="1320" as="sourcePoint" />
            <mxPoint x="680" y="1320" as="targetPoint" />
          </mxGeometry>
        </mxCell>
        <mxCell id="zvVPhW93EorZRx8h_Ae8-260" value="" style="endArrow=none;html=1;rounded=0;strokeWidth=3;" edge="1" parent="1">
          <mxGeometry width="50" height="50" relative="1" as="geometry">
            <mxPoint x="680" y="1320" as="sourcePoint" />
            <mxPoint x="680" y="1280" as="targetPoint" />
          </mxGeometry>
        </mxCell>
        <mxCell id="zvVPhW93EorZRx8h_Ae8-261" value="" style="endArrow=none;html=1;rounded=0;strokeWidth=3;" edge="1" parent="1">
          <mxGeometry width="50" height="50" relative="1" as="geometry">
            <mxPoint x="840" y="1280" as="sourcePoint" />
            <mxPoint x="680" y="1280" as="targetPoint" />
          </mxGeometry>
        </mxCell>
        <mxCell id="zvVPhW93EorZRx8h_Ae8-262" value="" style="endArrow=none;html=1;rounded=0;strokeWidth=3;" edge="1" parent="1">
          <mxGeometry width="50" height="50" relative="1" as="geometry">
            <mxPoint x="840" y="1320" as="sourcePoint" />
            <mxPoint x="840" y="1280" as="targetPoint" />
          </mxGeometry>
        </mxCell>
        <mxCell id="zvVPhW93EorZRx8h_Ae8-263" value="" style="endArrow=none;html=1;rounded=0;strokeWidth=3;" edge="1" parent="1">
          <mxGeometry width="50" height="50" relative="1" as="geometry">
            <mxPoint x="840" y="1320" as="sourcePoint" />
            <mxPoint x="1000" y="1320" as="targetPoint" />
          </mxGeometry>
        </mxCell>
        <mxCell id="zvVPhW93EorZRx8h_Ae8-264" value="" style="endArrow=none;html=1;rounded=0;strokeWidth=3;" edge="1" parent="1">
          <mxGeometry width="50" height="50" relative="1" as="geometry">
            <mxPoint x="1000" y="1320" as="sourcePoint" />
            <mxPoint x="1000" y="1280" as="targetPoint" />
          </mxGeometry>
        </mxCell>
        <mxCell id="zvVPhW93EorZRx8h_Ae8-265" value="" style="endArrow=none;html=1;rounded=0;strokeWidth=3;" edge="1" parent="1">
          <mxGeometry width="50" height="50" relative="1" as="geometry">
            <mxPoint x="1160" y="1280" as="sourcePoint" />
            <mxPoint x="1000" y="1280" as="targetPoint" />
          </mxGeometry>
        </mxCell>
        <mxCell id="zvVPhW93EorZRx8h_Ae8-266" value="" style="endArrow=none;html=1;rounded=0;strokeWidth=3;" edge="1" parent="1">
          <mxGeometry width="50" height="50" relative="1" as="geometry">
            <mxPoint x="1160" y="1320" as="sourcePoint" />
            <mxPoint x="1160" y="1280" as="targetPoint" />
          </mxGeometry>
        </mxCell>
        <mxCell id="zvVPhW93EorZRx8h_Ae8-267" value="" style="endArrow=none;html=1;rounded=0;strokeWidth=3;" edge="1" parent="1">
          <mxGeometry width="50" height="50" relative="1" as="geometry">
            <mxPoint x="1160" y="1320" as="sourcePoint" />
            <mxPoint x="1240" y="1320" as="targetPoint" />
          </mxGeometry>
        </mxCell>
        <mxCell id="zvVPhW93EorZRx8h_Ae8-281" value="" style="endArrow=none;html=1;rounded=0;strokeWidth=3;" edge="1" parent="1">
          <mxGeometry width="50" height="50" relative="1" as="geometry">
            <mxPoint x="200" y="1440" as="sourcePoint" />
            <mxPoint x="360" y="1440" as="targetPoint" />
          </mxGeometry>
        </mxCell>
        <mxCell id="zvVPhW93EorZRx8h_Ae8-282" value="" style="endArrow=none;html=1;rounded=0;strokeWidth=3;" edge="1" parent="1">
          <mxGeometry width="50" height="50" relative="1" as="geometry">
            <mxPoint x="360" y="1440" as="sourcePoint" />
            <mxPoint x="360" y="1480" as="targetPoint" />
          </mxGeometry>
        </mxCell>
        <mxCell id="zvVPhW93EorZRx8h_Ae8-283" value="" style="endArrow=none;html=1;rounded=0;strokeWidth=3;" edge="1" parent="1">
          <mxGeometry width="50" height="50" relative="1" as="geometry">
            <mxPoint x="520" y="1480" as="sourcePoint" />
            <mxPoint x="360" y="1480" as="targetPoint" />
          </mxGeometry>
        </mxCell>
        <mxCell id="zvVPhW93EorZRx8h_Ae8-284" value="" style="endArrow=none;html=1;rounded=0;strokeWidth=3;" edge="1" parent="1">
          <mxGeometry width="50" height="50" relative="1" as="geometry">
            <mxPoint x="520" y="1440" as="sourcePoint" />
            <mxPoint x="520" y="1480" as="targetPoint" />
          </mxGeometry>
        </mxCell>
        <mxCell id="zvVPhW93EorZRx8h_Ae8-285" value="" style="endArrow=none;html=1;rounded=0;strokeWidth=3;" edge="1" parent="1">
          <mxGeometry width="50" height="50" relative="1" as="geometry">
            <mxPoint x="520" y="1440" as="sourcePoint" />
            <mxPoint x="680" y="1440" as="targetPoint" />
          </mxGeometry>
        </mxCell>
        <mxCell id="zvVPhW93EorZRx8h_Ae8-286" value="" style="endArrow=none;html=1;rounded=0;strokeWidth=3;" edge="1" parent="1">
          <mxGeometry width="50" height="50" relative="1" as="geometry">
            <mxPoint x="680" y="1440" as="sourcePoint" />
            <mxPoint x="680" y="1480" as="targetPoint" />
          </mxGeometry>
        </mxCell>
        <mxCell id="zvVPhW93EorZRx8h_Ae8-287" value="" style="endArrow=none;html=1;rounded=0;strokeWidth=3;" edge="1" parent="1">
          <mxGeometry width="50" height="50" relative="1" as="geometry">
            <mxPoint x="840" y="1480" as="sourcePoint" />
            <mxPoint x="680" y="1480" as="targetPoint" />
          </mxGeometry>
        </mxCell>
        <mxCell id="zvVPhW93EorZRx8h_Ae8-288" value="" style="endArrow=none;html=1;rounded=0;strokeWidth=3;" edge="1" parent="1">
          <mxGeometry width="50" height="50" relative="1" as="geometry">
            <mxPoint x="840" y="1440" as="sourcePoint" />
            <mxPoint x="840" y="1480" as="targetPoint" />
          </mxGeometry>
        </mxCell>
        <mxCell id="zvVPhW93EorZRx8h_Ae8-289" value="" style="endArrow=none;html=1;rounded=0;strokeWidth=3;" edge="1" parent="1">
          <mxGeometry width="50" height="50" relative="1" as="geometry">
            <mxPoint x="840" y="1440" as="sourcePoint" />
            <mxPoint x="1000" y="1440" as="targetPoint" />
          </mxGeometry>
        </mxCell>
        <mxCell id="zvVPhW93EorZRx8h_Ae8-290" value="" style="endArrow=none;html=1;rounded=0;strokeWidth=3;" edge="1" parent="1">
          <mxGeometry width="50" height="50" relative="1" as="geometry">
            <mxPoint x="1000" y="1440" as="sourcePoint" />
            <mxPoint x="1000" y="1480" as="targetPoint" />
          </mxGeometry>
        </mxCell>
        <mxCell id="zvVPhW93EorZRx8h_Ae8-291" value="" style="endArrow=none;html=1;rounded=0;strokeWidth=3;" edge="1" parent="1">
          <mxGeometry width="50" height="50" relative="1" as="geometry">
            <mxPoint x="1160" y="1480" as="sourcePoint" />
            <mxPoint x="1000" y="1480" as="targetPoint" />
          </mxGeometry>
        </mxCell>
        <mxCell id="zvVPhW93EorZRx8h_Ae8-292" value="" style="endArrow=none;html=1;rounded=0;strokeWidth=3;" edge="1" parent="1">
          <mxGeometry width="50" height="50" relative="1" as="geometry">
            <mxPoint x="1160" y="1440" as="sourcePoint" />
            <mxPoint x="1160" y="1480" as="targetPoint" />
          </mxGeometry>
        </mxCell>
        <mxCell id="zvVPhW93EorZRx8h_Ae8-293" value="" style="endArrow=none;html=1;rounded=0;strokeWidth=3;" edge="1" parent="1">
          <mxGeometry width="50" height="50" relative="1" as="geometry">
            <mxPoint x="1160" y="1440" as="sourcePoint" />
            <mxPoint x="1240" y="1440" as="targetPoint" />
          </mxGeometry>
        </mxCell>
        <mxCell id="zvVPhW93EorZRx8h_Ae8-294" value="" style="endArrow=none;html=1;rounded=0;strokeWidth=3;" edge="1" parent="1">
          <mxGeometry width="50" height="50" relative="1" as="geometry">
            <mxPoint x="120" y="1280" as="sourcePoint" />
            <mxPoint x="200" y="1280" as="targetPoint" />
          </mxGeometry>
        </mxCell>
        <mxCell id="zvVPhW93EorZRx8h_Ae8-295" value="" style="endArrow=none;html=1;rounded=0;strokeWidth=3;" edge="1" parent="1">
          <mxGeometry width="50" height="50" relative="1" as="geometry">
            <mxPoint x="200" y="1280" as="sourcePoint" />
            <mxPoint x="200" y="1320" as="targetPoint" />
          </mxGeometry>
        </mxCell>
        <mxCell id="zvVPhW93EorZRx8h_Ae8-296" value="" style="endArrow=none;html=1;rounded=0;strokeWidth=3;" edge="1" parent="1">
          <mxGeometry width="50" height="50" relative="1" as="geometry">
            <mxPoint x="200" y="1440" as="sourcePoint" />
            <mxPoint x="200" y="1480" as="targetPoint" />
          </mxGeometry>
        </mxCell>
        <mxCell id="zvVPhW93EorZRx8h_Ae8-297" value="" style="endArrow=none;html=1;rounded=0;strokeWidth=3;" edge="1" parent="1">
          <mxGeometry width="50" height="50" relative="1" as="geometry">
            <mxPoint x="200" y="1480" as="sourcePoint" />
            <mxPoint x="120" y="1480" as="targetPoint" />
          </mxGeometry>
        </mxCell>
        <mxCell id="zvVPhW93EorZRx8h_Ae8-298" value="&lt;font style=&quot;font-size: 18px;&quot;&gt;$$A90_\text{Ip}$$&lt;/font&gt;" style="text;html=1;align=center;verticalAlign=middle;whiteSpace=wrap;rounded=0;container=0;" vertex="1" parent="1">
          <mxGeometry x="60" y="1200" width="60" height="30" as="geometry" />
        </mxCell>
        <mxCell id="zvVPhW93EorZRx8h_Ae8-299" value="&lt;font style=&quot;font-size: 18px;&quot;&gt;$$A90_\text{Im}$$&lt;/font&gt;" style="text;html=1;align=center;verticalAlign=middle;whiteSpace=wrap;rounded=0;container=0;" vertex="1" parent="1">
          <mxGeometry x="60" y="1360" width="60" height="30" as="geometry" />
        </mxCell>
        <mxCell id="zvVPhW93EorZRx8h_Ae8-300" value="&lt;font style=&quot;font-size: 18px;&quot;&gt;$$A90_\text{Qp}$$&lt;/font&gt;" style="text;html=1;align=center;verticalAlign=middle;whiteSpace=wrap;rounded=0;container=0;" vertex="1" parent="1">
          <mxGeometry x="60" y="1280" width="60" height="30" as="geometry" />
        </mxCell>
        <mxCell id="zvVPhW93EorZRx8h_Ae8-301" value="&lt;font style=&quot;font-size: 18px;&quot;&gt;$$A90_\text{Qm}$$&lt;/font&gt;" style="text;html=1;align=center;verticalAlign=middle;whiteSpace=wrap;rounded=0;container=0;" vertex="1" parent="1">
          <mxGeometry x="60" y="1440" width="60" height="30" as="geometry" />
        </mxCell>
        <mxCell id="zvVPhW93EorZRx8h_Ae8-306" value="&lt;font style=&quot;color: rgb(0, 153, 0); font-size: 32px;&quot;&gt;&lt;b style=&quot;&quot;&gt;4x16G&lt;/b&gt;&lt;/font&gt;" style="text;html=1;align=center;verticalAlign=middle;whiteSpace=wrap;rounded=0;" vertex="1" parent="1">
          <mxGeometry x="20" y="1320" width="60" height="30" as="geometry" />
        </mxCell>
        <mxCell id="zvVPhW93EorZRx8h_Ae8-307" value="" style="endArrow=none;html=1;rounded=0;strokeWidth=3;" edge="1" parent="1">
          <mxGeometry width="50" height="50" relative="1" as="geometry">
            <mxPoint x="120" y="1600" as="sourcePoint" />
            <mxPoint x="280" y="1600" as="targetPoint" />
          </mxGeometry>
        </mxCell>
        <mxCell id="zvVPhW93EorZRx8h_Ae8-308" value="" style="endArrow=none;html=1;rounded=0;strokeWidth=3;" edge="1" parent="1">
          <mxGeometry width="50" height="50" relative="1" as="geometry">
            <mxPoint x="280" y="1600" as="sourcePoint" />
            <mxPoint x="280" y="1560" as="targetPoint" />
          </mxGeometry>
        </mxCell>
        <mxCell id="zvVPhW93EorZRx8h_Ae8-309" value="" style="endArrow=none;html=1;rounded=0;strokeWidth=3;" edge="1" parent="1">
          <mxGeometry width="50" height="50" relative="1" as="geometry">
            <mxPoint x="600" y="1560" as="sourcePoint" />
            <mxPoint x="280" y="1560" as="targetPoint" />
          </mxGeometry>
        </mxCell>
        <mxCell id="zvVPhW93EorZRx8h_Ae8-312" value="" style="endArrow=none;html=1;rounded=0;strokeWidth=3;" edge="1" parent="1">
          <mxGeometry width="50" height="50" relative="1" as="geometry">
            <mxPoint x="600" y="1600" as="sourcePoint" />
            <mxPoint x="600" y="1560" as="targetPoint" />
          </mxGeometry>
        </mxCell>
        <mxCell id="zvVPhW93EorZRx8h_Ae8-313" value="" style="endArrow=none;html=1;rounded=0;strokeWidth=3;" edge="1" parent="1">
          <mxGeometry width="50" height="50" relative="1" as="geometry">
            <mxPoint x="760" y="1600" as="sourcePoint" />
            <mxPoint x="600" y="1600" as="targetPoint" />
          </mxGeometry>
        </mxCell>
        <mxCell id="zvVPhW93EorZRx8h_Ae8-315" value="" style="endArrow=none;html=1;rounded=0;strokeWidth=3;" edge="1" parent="1">
          <mxGeometry width="50" height="50" relative="1" as="geometry">
            <mxPoint x="760" y="1600" as="sourcePoint" />
            <mxPoint x="920" y="1600" as="targetPoint" />
          </mxGeometry>
        </mxCell>
        <mxCell id="zvVPhW93EorZRx8h_Ae8-316" value="" style="endArrow=none;html=1;rounded=0;strokeWidth=3;" edge="1" parent="1">
          <mxGeometry width="50" height="50" relative="1" as="geometry">
            <mxPoint x="920" y="1600" as="sourcePoint" />
            <mxPoint x="920" y="1560" as="targetPoint" />
          </mxGeometry>
        </mxCell>
        <mxCell id="zvVPhW93EorZRx8h_Ae8-317" value="" style="endArrow=none;html=1;rounded=0;strokeWidth=3;" edge="1" parent="1">
          <mxGeometry width="50" height="50" relative="1" as="geometry">
            <mxPoint x="1240" y="1560" as="sourcePoint" />
            <mxPoint x="920" y="1560" as="targetPoint" />
          </mxGeometry>
        </mxCell>
        <mxCell id="zvVPhW93EorZRx8h_Ae8-320" value="" style="rounded=0;whiteSpace=wrap;html=1;fillColor=#6666FF;strokeColor=none;opacity=30;" vertex="1" parent="1">
          <mxGeometry x="280" y="1560" width="80" height="40" as="geometry" />
        </mxCell>
        <mxCell id="zvVPhW93EorZRx8h_Ae8-321" value="&lt;b&gt;&lt;font style=&quot;color: rgb(255, 0, 255); font-size: 36px;&quot;&gt;1UI&lt;/font&gt;&lt;/b&gt;" style="text;html=1;align=center;verticalAlign=middle;whiteSpace=wrap;rounded=0;" vertex="1" parent="1">
          <mxGeometry x="290" y="1565" width="60" height="30" as="geometry" />
        </mxCell>
        <mxCell id="zvVPhW93EorZRx8h_Ae8-322" value="" style="endArrow=none;html=1;rounded=0;strokeWidth=3;" edge="1" parent="1">
          <mxGeometry width="50" height="50" relative="1" as="geometry">
            <mxPoint x="120" y="1680" as="sourcePoint" />
            <mxPoint x="360" y="1680" as="targetPoint" />
          </mxGeometry>
        </mxCell>
        <mxCell id="zvVPhW93EorZRx8h_Ae8-323" value="" style="endArrow=none;html=1;rounded=0;strokeWidth=3;" edge="1" parent="1">
          <mxGeometry width="50" height="50" relative="1" as="geometry">
            <mxPoint x="360" y="1680" as="sourcePoint" />
            <mxPoint x="360" y="1640" as="targetPoint" />
          </mxGeometry>
        </mxCell>
        <mxCell id="zvVPhW93EorZRx8h_Ae8-324" value="" style="endArrow=none;html=1;rounded=0;strokeWidth=3;" edge="1" parent="1">
          <mxGeometry width="50" height="50" relative="1" as="geometry">
            <mxPoint x="680" y="1640" as="sourcePoint" />
            <mxPoint x="360" y="1640" as="targetPoint" />
          </mxGeometry>
        </mxCell>
        <mxCell id="zvVPhW93EorZRx8h_Ae8-325" value="" style="endArrow=none;html=1;rounded=0;strokeWidth=3;" edge="1" parent="1">
          <mxGeometry width="50" height="50" relative="1" as="geometry">
            <mxPoint x="680" y="1680" as="sourcePoint" />
            <mxPoint x="680" y="1640" as="targetPoint" />
          </mxGeometry>
        </mxCell>
        <mxCell id="zvVPhW93EorZRx8h_Ae8-326" value="" style="endArrow=none;html=1;rounded=0;strokeWidth=3;" edge="1" parent="1">
          <mxGeometry width="50" height="50" relative="1" as="geometry">
            <mxPoint x="840" y="1680" as="sourcePoint" />
            <mxPoint x="680" y="1680" as="targetPoint" />
          </mxGeometry>
        </mxCell>
        <mxCell id="zvVPhW93EorZRx8h_Ae8-327" value="" style="endArrow=none;html=1;rounded=0;strokeWidth=3;" edge="1" parent="1">
          <mxGeometry width="50" height="50" relative="1" as="geometry">
            <mxPoint x="840" y="1680" as="sourcePoint" />
            <mxPoint x="1000" y="1680" as="targetPoint" />
          </mxGeometry>
        </mxCell>
        <mxCell id="zvVPhW93EorZRx8h_Ae8-328" value="" style="endArrow=none;html=1;rounded=0;strokeWidth=3;" edge="1" parent="1">
          <mxGeometry width="50" height="50" relative="1" as="geometry">
            <mxPoint x="1000" y="1680" as="sourcePoint" />
            <mxPoint x="1000" y="1640" as="targetPoint" />
          </mxGeometry>
        </mxCell>
        <mxCell id="zvVPhW93EorZRx8h_Ae8-329" value="" style="endArrow=none;html=1;rounded=0;strokeWidth=3;" edge="1" parent="1">
          <mxGeometry width="50" height="50" relative="1" as="geometry">
            <mxPoint x="1240" y="1640" as="sourcePoint" />
            <mxPoint x="1000" y="1640" as="targetPoint" />
          </mxGeometry>
        </mxCell>
        <mxCell id="zvVPhW93EorZRx8h_Ae8-330" value="" style="rounded=0;whiteSpace=wrap;html=1;fillColor=#6666FF;strokeColor=none;opacity=30;" vertex="1" parent="1">
          <mxGeometry x="360" y="1640" width="80" height="40" as="geometry" />
        </mxCell>
        <mxCell id="zvVPhW93EorZRx8h_Ae8-331" value="&lt;b&gt;&lt;font style=&quot;color: rgb(255, 0, 255); font-size: 36px;&quot;&gt;1UI&lt;/font&gt;&lt;/b&gt;" style="text;html=1;align=center;verticalAlign=middle;whiteSpace=wrap;rounded=0;" vertex="1" parent="1">
          <mxGeometry x="370" y="1645" width="60" height="30" as="geometry" />
        </mxCell>
        <mxCell id="zvVPhW93EorZRx8h_Ae8-332" value="" style="group" vertex="1" connectable="0" parent="1">
          <mxGeometry x="280" y="1200" width="80" height="40" as="geometry" />
        </mxCell>
        <mxCell id="zvVPhW93EorZRx8h_Ae8-304" value="" style="rounded=0;whiteSpace=wrap;html=1;fillColor=#6666FF;strokeColor=none;opacity=30;" vertex="1" parent="zvVPhW93EorZRx8h_Ae8-332">
          <mxGeometry width="80" height="40" as="geometry" />
        </mxCell>
        <mxCell id="zvVPhW93EorZRx8h_Ae8-305" value="&lt;b&gt;&lt;font style=&quot;color: rgb(255, 0, 255); font-size: 36px;&quot;&gt;1UI&lt;/font&gt;&lt;/b&gt;" style="text;html=1;align=center;verticalAlign=middle;whiteSpace=wrap;rounded=0;" vertex="1" parent="zvVPhW93EorZRx8h_Ae8-332">
          <mxGeometry x="10" y="5" width="60" height="30" as="geometry" />
        </mxCell>
        <mxCell id="zvVPhW93EorZRx8h_Ae8-334" value="" style="rounded=0;whiteSpace=wrap;html=1;fillColor=#6666FF;strokeColor=none;opacity=30;" vertex="1" parent="1">
          <mxGeometry x="360" y="1280" width="80" height="40" as="geometry" />
        </mxCell>
        <mxCell id="zvVPhW93EorZRx8h_Ae8-335" value="&lt;b&gt;&lt;font style=&quot;color: rgb(255, 0, 255); font-size: 36px;&quot;&gt;1UI&lt;/font&gt;&lt;/b&gt;" style="text;html=1;align=center;verticalAlign=middle;whiteSpace=wrap;rounded=0;" vertex="1" parent="1">
          <mxGeometry x="370" y="1285" width="60" height="30" as="geometry" />
        </mxCell>
        <mxCell id="zvVPhW93EorZRx8h_Ae8-336" value="" style="rounded=0;whiteSpace=wrap;html=1;fillColor=#6666FF;strokeColor=none;opacity=30;" vertex="1" parent="1">
          <mxGeometry x="440" y="1360" width="80" height="40" as="geometry" />
        </mxCell>
        <mxCell id="zvVPhW93EorZRx8h_Ae8-337" value="&lt;b&gt;&lt;font style=&quot;color: rgb(255, 0, 255); font-size: 36px;&quot;&gt;1UI&lt;/font&gt;&lt;/b&gt;" style="text;html=1;align=center;verticalAlign=middle;whiteSpace=wrap;rounded=0;" vertex="1" parent="1">
          <mxGeometry x="450" y="1365" width="60" height="30" as="geometry" />
        </mxCell>
        <mxCell id="zvVPhW93EorZRx8h_Ae8-338" value="" style="rounded=0;whiteSpace=wrap;html=1;fillColor=#6666FF;strokeColor=none;opacity=30;" vertex="1" parent="1">
          <mxGeometry x="520" y="1440" width="80" height="40" as="geometry" />
        </mxCell>
        <mxCell id="zvVPhW93EorZRx8h_Ae8-339" value="&lt;b&gt;&lt;font style=&quot;color: rgb(255, 0, 255); font-size: 36px;&quot;&gt;1UI&lt;/font&gt;&lt;/b&gt;" style="text;html=1;align=center;verticalAlign=middle;whiteSpace=wrap;rounded=0;" vertex="1" parent="1">
          <mxGeometry x="530" y="1445" width="60" height="30" as="geometry" />
        </mxCell>
        <mxCell id="zvVPhW93EorZRx8h_Ae8-340" value="" style="endArrow=none;html=1;rounded=0;strokeWidth=3;" edge="1" parent="1">
          <mxGeometry width="50" height="50" relative="1" as="geometry">
            <mxPoint x="120" y="1760" as="sourcePoint" />
            <mxPoint x="440" y="1760" as="targetPoint" />
          </mxGeometry>
        </mxCell>
        <mxCell id="zvVPhW93EorZRx8h_Ae8-341" value="" style="endArrow=none;html=1;rounded=0;strokeWidth=3;" edge="1" parent="1">
          <mxGeometry width="50" height="50" relative="1" as="geometry">
            <mxPoint x="440" y="1760" as="sourcePoint" />
            <mxPoint x="440" y="1720" as="targetPoint" />
          </mxGeometry>
        </mxCell>
        <mxCell id="zvVPhW93EorZRx8h_Ae8-342" value="" style="endArrow=none;html=1;rounded=0;strokeWidth=3;" edge="1" parent="1">
          <mxGeometry width="50" height="50" relative="1" as="geometry">
            <mxPoint x="760" y="1720" as="sourcePoint" />
            <mxPoint x="440" y="1720" as="targetPoint" />
          </mxGeometry>
        </mxCell>
        <mxCell id="zvVPhW93EorZRx8h_Ae8-343" value="" style="endArrow=none;html=1;rounded=0;strokeWidth=3;" edge="1" parent="1">
          <mxGeometry width="50" height="50" relative="1" as="geometry">
            <mxPoint x="760" y="1760" as="sourcePoint" />
            <mxPoint x="760" y="1720" as="targetPoint" />
          </mxGeometry>
        </mxCell>
        <mxCell id="zvVPhW93EorZRx8h_Ae8-344" value="" style="endArrow=none;html=1;rounded=0;strokeWidth=3;" edge="1" parent="1">
          <mxGeometry width="50" height="50" relative="1" as="geometry">
            <mxPoint x="920" y="1760" as="sourcePoint" />
            <mxPoint x="760" y="1760" as="targetPoint" />
          </mxGeometry>
        </mxCell>
        <mxCell id="zvVPhW93EorZRx8h_Ae8-345" value="" style="endArrow=none;html=1;rounded=0;strokeWidth=3;" edge="1" parent="1">
          <mxGeometry width="50" height="50" relative="1" as="geometry">
            <mxPoint x="920" y="1760" as="sourcePoint" />
            <mxPoint x="1080" y="1760" as="targetPoint" />
          </mxGeometry>
        </mxCell>
        <mxCell id="zvVPhW93EorZRx8h_Ae8-346" value="" style="endArrow=none;html=1;rounded=0;strokeWidth=3;" edge="1" parent="1">
          <mxGeometry width="50" height="50" relative="1" as="geometry">
            <mxPoint x="1080" y="1760" as="sourcePoint" />
            <mxPoint x="1080" y="1720" as="targetPoint" />
          </mxGeometry>
        </mxCell>
        <mxCell id="zvVPhW93EorZRx8h_Ae8-347" value="" style="endArrow=none;html=1;rounded=0;strokeWidth=3;" edge="1" parent="1">
          <mxGeometry width="50" height="50" relative="1" as="geometry">
            <mxPoint x="1240" y="1720" as="sourcePoint" />
            <mxPoint x="1080" y="1720" as="targetPoint" />
          </mxGeometry>
        </mxCell>
        <mxCell id="zvVPhW93EorZRx8h_Ae8-348" value="" style="rounded=0;whiteSpace=wrap;html=1;fillColor=#6666FF;strokeColor=none;opacity=30;" vertex="1" parent="1">
          <mxGeometry x="440" y="1720" width="80" height="40" as="geometry" />
        </mxCell>
        <mxCell id="zvVPhW93EorZRx8h_Ae8-349" value="&lt;b&gt;&lt;font style=&quot;color: rgb(255, 0, 255); font-size: 36px;&quot;&gt;1UI&lt;/font&gt;&lt;/b&gt;" style="text;html=1;align=center;verticalAlign=middle;whiteSpace=wrap;rounded=0;" vertex="1" parent="1">
          <mxGeometry x="450" y="1725" width="60" height="30" as="geometry" />
        </mxCell>
        <mxCell id="zvVPhW93EorZRx8h_Ae8-350" value="" style="endArrow=none;html=1;rounded=0;strokeWidth=3;" edge="1" parent="1">
          <mxGeometry width="50" height="50" relative="1" as="geometry">
            <mxPoint x="200" y="1840" as="sourcePoint" />
            <mxPoint x="520" y="1840" as="targetPoint" />
          </mxGeometry>
        </mxCell>
        <mxCell id="zvVPhW93EorZRx8h_Ae8-351" value="" style="endArrow=none;html=1;rounded=0;strokeWidth=3;" edge="1" parent="1">
          <mxGeometry width="50" height="50" relative="1" as="geometry">
            <mxPoint x="520" y="1840" as="sourcePoint" />
            <mxPoint x="520" y="1800" as="targetPoint" />
          </mxGeometry>
        </mxCell>
        <mxCell id="zvVPhW93EorZRx8h_Ae8-352" value="" style="endArrow=none;html=1;rounded=0;strokeWidth=3;" edge="1" parent="1">
          <mxGeometry width="50" height="50" relative="1" as="geometry">
            <mxPoint x="840" y="1800" as="sourcePoint" />
            <mxPoint x="520" y="1800" as="targetPoint" />
          </mxGeometry>
        </mxCell>
        <mxCell id="zvVPhW93EorZRx8h_Ae8-353" value="" style="endArrow=none;html=1;rounded=0;strokeWidth=3;" edge="1" parent="1">
          <mxGeometry width="50" height="50" relative="1" as="geometry">
            <mxPoint x="840" y="1840" as="sourcePoint" />
            <mxPoint x="840" y="1800" as="targetPoint" />
          </mxGeometry>
        </mxCell>
        <mxCell id="zvVPhW93EorZRx8h_Ae8-354" value="" style="endArrow=none;html=1;rounded=0;strokeWidth=3;" edge="1" parent="1">
          <mxGeometry width="50" height="50" relative="1" as="geometry">
            <mxPoint x="1000" y="1840" as="sourcePoint" />
            <mxPoint x="840" y="1840" as="targetPoint" />
          </mxGeometry>
        </mxCell>
        <mxCell id="zvVPhW93EorZRx8h_Ae8-355" value="" style="endArrow=none;html=1;rounded=0;strokeWidth=3;" edge="1" parent="1">
          <mxGeometry width="50" height="50" relative="1" as="geometry">
            <mxPoint x="1000" y="1840" as="sourcePoint" />
            <mxPoint x="1160" y="1840" as="targetPoint" />
          </mxGeometry>
        </mxCell>
        <mxCell id="zvVPhW93EorZRx8h_Ae8-356" value="" style="endArrow=none;html=1;rounded=0;strokeWidth=3;" edge="1" parent="1">
          <mxGeometry width="50" height="50" relative="1" as="geometry">
            <mxPoint x="1160" y="1840" as="sourcePoint" />
            <mxPoint x="1160" y="1800" as="targetPoint" />
          </mxGeometry>
        </mxCell>
        <mxCell id="zvVPhW93EorZRx8h_Ae8-357" value="" style="endArrow=none;html=1;rounded=0;strokeWidth=3;" edge="1" parent="1">
          <mxGeometry width="50" height="50" relative="1" as="geometry">
            <mxPoint x="1240" y="1800" as="sourcePoint" />
            <mxPoint x="1160" y="1800" as="targetPoint" />
          </mxGeometry>
        </mxCell>
        <mxCell id="zvVPhW93EorZRx8h_Ae8-358" value="" style="rounded=0;whiteSpace=wrap;html=1;fillColor=#6666FF;strokeColor=none;opacity=30;" vertex="1" parent="1">
          <mxGeometry x="520" y="1800" width="80" height="40" as="geometry" />
        </mxCell>
        <mxCell id="zvVPhW93EorZRx8h_Ae8-359" value="&lt;b&gt;&lt;font style=&quot;color: rgb(255, 0, 255); font-size: 36px;&quot;&gt;1UI&lt;/font&gt;&lt;/b&gt;" style="text;html=1;align=center;verticalAlign=middle;whiteSpace=wrap;rounded=0;" vertex="1" parent="1">
          <mxGeometry x="530" y="1805" width="60" height="30" as="geometry" />
        </mxCell>
        <mxCell id="zvVPhW93EorZRx8h_Ae8-360" value="" style="endArrow=none;html=1;rounded=0;strokeWidth=3;" edge="1" parent="1">
          <mxGeometry width="50" height="50" relative="1" as="geometry">
            <mxPoint x="280" y="1920" as="sourcePoint" />
            <mxPoint x="600" y="1920" as="targetPoint" />
          </mxGeometry>
        </mxCell>
        <mxCell id="zvVPhW93EorZRx8h_Ae8-361" value="" style="endArrow=none;html=1;rounded=0;strokeWidth=3;" edge="1" parent="1">
          <mxGeometry width="50" height="50" relative="1" as="geometry">
            <mxPoint x="600" y="1920" as="sourcePoint" />
            <mxPoint x="600" y="1880" as="targetPoint" />
          </mxGeometry>
        </mxCell>
        <mxCell id="zvVPhW93EorZRx8h_Ae8-362" value="" style="endArrow=none;html=1;rounded=0;strokeWidth=3;" edge="1" parent="1">
          <mxGeometry width="50" height="50" relative="1" as="geometry">
            <mxPoint x="920" y="1880" as="sourcePoint" />
            <mxPoint x="600" y="1880" as="targetPoint" />
          </mxGeometry>
        </mxCell>
        <mxCell id="zvVPhW93EorZRx8h_Ae8-363" value="" style="endArrow=none;html=1;rounded=0;strokeWidth=3;" edge="1" parent="1">
          <mxGeometry width="50" height="50" relative="1" as="geometry">
            <mxPoint x="920" y="1920" as="sourcePoint" />
            <mxPoint x="920" y="1880" as="targetPoint" />
          </mxGeometry>
        </mxCell>
        <mxCell id="zvVPhW93EorZRx8h_Ae8-364" value="" style="endArrow=none;html=1;rounded=0;strokeWidth=3;" edge="1" parent="1">
          <mxGeometry width="50" height="50" relative="1" as="geometry">
            <mxPoint x="1080" y="1920" as="sourcePoint" />
            <mxPoint x="920" y="1920" as="targetPoint" />
          </mxGeometry>
        </mxCell>
        <mxCell id="zvVPhW93EorZRx8h_Ae8-365" value="" style="endArrow=none;html=1;rounded=0;strokeWidth=3;" edge="1" parent="1">
          <mxGeometry width="50" height="50" relative="1" as="geometry">
            <mxPoint x="1080" y="1920" as="sourcePoint" />
            <mxPoint x="1240" y="1920" as="targetPoint" />
          </mxGeometry>
        </mxCell>
        <mxCell id="zvVPhW93EorZRx8h_Ae8-368" value="" style="rounded=0;whiteSpace=wrap;html=1;fillColor=#6666FF;strokeColor=none;opacity=30;" vertex="1" parent="1">
          <mxGeometry x="600" y="1880" width="80" height="40" as="geometry" />
        </mxCell>
        <mxCell id="zvVPhW93EorZRx8h_Ae8-369" value="&lt;b&gt;&lt;font style=&quot;color: rgb(255, 0, 255); font-size: 36px;&quot;&gt;1UI&lt;/font&gt;&lt;/b&gt;" style="text;html=1;align=center;verticalAlign=middle;whiteSpace=wrap;rounded=0;" vertex="1" parent="1">
          <mxGeometry x="610" y="1885" width="60" height="30" as="geometry" />
        </mxCell>
        <mxCell id="zvVPhW93EorZRx8h_Ae8-370" value="" style="endArrow=none;html=1;rounded=0;strokeWidth=3;" edge="1" parent="1">
          <mxGeometry width="50" height="50" relative="1" as="geometry">
            <mxPoint x="360" y="2000" as="sourcePoint" />
            <mxPoint x="680" y="2000" as="targetPoint" />
          </mxGeometry>
        </mxCell>
        <mxCell id="zvVPhW93EorZRx8h_Ae8-371" value="" style="endArrow=none;html=1;rounded=0;strokeWidth=3;" edge="1" parent="1">
          <mxGeometry width="50" height="50" relative="1" as="geometry">
            <mxPoint x="680" y="2000" as="sourcePoint" />
            <mxPoint x="680" y="1960" as="targetPoint" />
          </mxGeometry>
        </mxCell>
        <mxCell id="zvVPhW93EorZRx8h_Ae8-372" value="" style="endArrow=none;html=1;rounded=0;strokeWidth=3;" edge="1" parent="1">
          <mxGeometry width="50" height="50" relative="1" as="geometry">
            <mxPoint x="1000" y="1960" as="sourcePoint" />
            <mxPoint x="680" y="1960" as="targetPoint" />
          </mxGeometry>
        </mxCell>
        <mxCell id="zvVPhW93EorZRx8h_Ae8-373" value="" style="endArrow=none;html=1;rounded=0;strokeWidth=3;" edge="1" parent="1">
          <mxGeometry width="50" height="50" relative="1" as="geometry">
            <mxPoint x="1000" y="2000" as="sourcePoint" />
            <mxPoint x="1000" y="1960" as="targetPoint" />
          </mxGeometry>
        </mxCell>
        <mxCell id="zvVPhW93EorZRx8h_Ae8-374" value="" style="endArrow=none;html=1;rounded=0;strokeWidth=3;" edge="1" parent="1">
          <mxGeometry width="50" height="50" relative="1" as="geometry">
            <mxPoint x="1160" y="2000" as="sourcePoint" />
            <mxPoint x="1000" y="2000" as="targetPoint" />
          </mxGeometry>
        </mxCell>
        <mxCell id="zvVPhW93EorZRx8h_Ae8-375" value="" style="endArrow=none;html=1;rounded=0;strokeWidth=3;" edge="1" parent="1">
          <mxGeometry width="50" height="50" relative="1" as="geometry">
            <mxPoint x="1160" y="2000" as="sourcePoint" />
            <mxPoint x="1240" y="2000" as="targetPoint" />
          </mxGeometry>
        </mxCell>
        <mxCell id="zvVPhW93EorZRx8h_Ae8-378" value="" style="rounded=0;whiteSpace=wrap;html=1;fillColor=#6666FF;strokeColor=none;opacity=30;" vertex="1" parent="1">
          <mxGeometry x="680" y="1960" width="80" height="40" as="geometry" />
        </mxCell>
        <mxCell id="zvVPhW93EorZRx8h_Ae8-379" value="&lt;b&gt;&lt;font style=&quot;color: rgb(255, 0, 255); font-size: 36px;&quot;&gt;1UI&lt;/font&gt;&lt;/b&gt;" style="text;html=1;align=center;verticalAlign=middle;whiteSpace=wrap;rounded=0;" vertex="1" parent="1">
          <mxGeometry x="690" y="1965" width="60" height="30" as="geometry" />
        </mxCell>
        <mxCell id="zvVPhW93EorZRx8h_Ae8-380" value="" style="endArrow=none;html=1;rounded=0;strokeWidth=3;" edge="1" parent="1">
          <mxGeometry width="50" height="50" relative="1" as="geometry">
            <mxPoint x="440" y="2080" as="sourcePoint" />
            <mxPoint x="760" y="2080" as="targetPoint" />
          </mxGeometry>
        </mxCell>
        <mxCell id="zvVPhW93EorZRx8h_Ae8-381" value="" style="endArrow=none;html=1;rounded=0;strokeWidth=3;" edge="1" parent="1">
          <mxGeometry width="50" height="50" relative="1" as="geometry">
            <mxPoint x="760" y="2080" as="sourcePoint" />
            <mxPoint x="760" y="2040" as="targetPoint" />
          </mxGeometry>
        </mxCell>
        <mxCell id="zvVPhW93EorZRx8h_Ae8-382" value="" style="endArrow=none;html=1;rounded=0;strokeWidth=3;" edge="1" parent="1">
          <mxGeometry width="50" height="50" relative="1" as="geometry">
            <mxPoint x="1080" y="2040" as="sourcePoint" />
            <mxPoint x="760" y="2040" as="targetPoint" />
          </mxGeometry>
        </mxCell>
        <mxCell id="zvVPhW93EorZRx8h_Ae8-383" value="" style="endArrow=none;html=1;rounded=0;strokeWidth=3;" edge="1" parent="1">
          <mxGeometry width="50" height="50" relative="1" as="geometry">
            <mxPoint x="1080" y="2080" as="sourcePoint" />
            <mxPoint x="1080" y="2040" as="targetPoint" />
          </mxGeometry>
        </mxCell>
        <mxCell id="zvVPhW93EorZRx8h_Ae8-384" value="" style="endArrow=none;html=1;rounded=0;strokeWidth=3;" edge="1" parent="1">
          <mxGeometry width="50" height="50" relative="1" as="geometry">
            <mxPoint x="1240" y="2080" as="sourcePoint" />
            <mxPoint x="1080" y="2080" as="targetPoint" />
          </mxGeometry>
        </mxCell>
        <mxCell id="zvVPhW93EorZRx8h_Ae8-388" value="" style="rounded=0;whiteSpace=wrap;html=1;fillColor=#6666FF;strokeColor=none;opacity=30;" vertex="1" parent="1">
          <mxGeometry x="760" y="2040" width="80" height="40" as="geometry" />
        </mxCell>
        <mxCell id="zvVPhW93EorZRx8h_Ae8-389" value="&lt;b&gt;&lt;font style=&quot;color: rgb(255, 0, 255); font-size: 36px;&quot;&gt;1UI&lt;/font&gt;&lt;/b&gt;" style="text;html=1;align=center;verticalAlign=middle;whiteSpace=wrap;rounded=0;" vertex="1" parent="1">
          <mxGeometry x="770" y="2045" width="60" height="30" as="geometry" />
        </mxCell>
        <mxCell id="zvVPhW93EorZRx8h_Ae8-390" value="" style="endArrow=none;html=1;rounded=0;strokeWidth=3;" edge="1" parent="1">
          <mxGeometry width="50" height="50" relative="1" as="geometry">
            <mxPoint x="520" y="2160" as="sourcePoint" />
            <mxPoint x="840" y="2160" as="targetPoint" />
          </mxGeometry>
        </mxCell>
        <mxCell id="zvVPhW93EorZRx8h_Ae8-391" value="" style="endArrow=none;html=1;rounded=0;strokeWidth=3;" edge="1" parent="1">
          <mxGeometry width="50" height="50" relative="1" as="geometry">
            <mxPoint x="840" y="2160" as="sourcePoint" />
            <mxPoint x="840" y="2120" as="targetPoint" />
          </mxGeometry>
        </mxCell>
        <mxCell id="zvVPhW93EorZRx8h_Ae8-392" value="" style="endArrow=none;html=1;rounded=0;strokeWidth=3;" edge="1" parent="1">
          <mxGeometry width="50" height="50" relative="1" as="geometry">
            <mxPoint x="1160" y="2120" as="sourcePoint" />
            <mxPoint x="840" y="2120" as="targetPoint" />
          </mxGeometry>
        </mxCell>
        <mxCell id="zvVPhW93EorZRx8h_Ae8-393" value="" style="endArrow=none;html=1;rounded=0;strokeWidth=3;" edge="1" parent="1">
          <mxGeometry width="50" height="50" relative="1" as="geometry">
            <mxPoint x="1160" y="2160" as="sourcePoint" />
            <mxPoint x="1160" y="2120" as="targetPoint" />
          </mxGeometry>
        </mxCell>
        <mxCell id="zvVPhW93EorZRx8h_Ae8-394" value="" style="endArrow=none;html=1;rounded=0;strokeWidth=3;" edge="1" parent="1">
          <mxGeometry width="50" height="50" relative="1" as="geometry">
            <mxPoint x="1240" y="2160" as="sourcePoint" />
            <mxPoint x="1160" y="2160" as="targetPoint" />
          </mxGeometry>
        </mxCell>
        <mxCell id="zvVPhW93EorZRx8h_Ae8-398" value="" style="rounded=0;whiteSpace=wrap;html=1;fillColor=#6666FF;strokeColor=none;opacity=30;" vertex="1" parent="1">
          <mxGeometry x="840" y="2120" width="80" height="40" as="geometry" />
        </mxCell>
        <mxCell id="zvVPhW93EorZRx8h_Ae8-399" value="&lt;b&gt;&lt;font style=&quot;color: rgb(255, 0, 255); font-size: 36px;&quot;&gt;1UI&lt;/font&gt;&lt;/b&gt;" style="text;html=1;align=center;verticalAlign=middle;whiteSpace=wrap;rounded=0;" vertex="1" parent="1">
          <mxGeometry x="850" y="2125" width="60" height="30" as="geometry" />
        </mxCell>
        <mxCell id="zvVPhW93EorZRx8h_Ae8-401" value="" style="endArrow=none;html=1;rounded=0;strokeWidth=3;" edge="1" parent="1">
          <mxGeometry width="50" height="50" relative="1" as="geometry">
            <mxPoint x="200" y="1840" as="sourcePoint" />
            <mxPoint x="200" y="1800" as="targetPoint" />
          </mxGeometry>
        </mxCell>
        <mxCell id="zvVPhW93EorZRx8h_Ae8-402" value="" style="endArrow=none;html=1;rounded=0;strokeWidth=3;" edge="1" parent="1">
          <mxGeometry width="50" height="50" relative="1" as="geometry">
            <mxPoint x="200" y="1840" as="sourcePoint" />
            <mxPoint x="200" y="1800" as="targetPoint" />
          </mxGeometry>
        </mxCell>
        <mxCell id="zvVPhW93EorZRx8h_Ae8-403" value="" style="endArrow=none;html=1;rounded=0;strokeWidth=3;" edge="1" parent="1">
          <mxGeometry width="50" height="50" relative="1" as="geometry">
            <mxPoint x="200" y="1800" as="sourcePoint" />
            <mxPoint x="120" y="1800" as="targetPoint" />
          </mxGeometry>
        </mxCell>
        <mxCell id="zvVPhW93EorZRx8h_Ae8-404" value="" style="endArrow=none;html=1;rounded=0;strokeWidth=3;" edge="1" parent="1">
          <mxGeometry width="50" height="50" relative="1" as="geometry">
            <mxPoint x="279.13" y="1920" as="sourcePoint" />
            <mxPoint x="279.13" y="1880" as="targetPoint" />
          </mxGeometry>
        </mxCell>
        <mxCell id="zvVPhW93EorZRx8h_Ae8-405" value="" style="endArrow=none;html=1;rounded=0;strokeWidth=3;" edge="1" parent="1">
          <mxGeometry width="50" height="50" relative="1" as="geometry">
            <mxPoint x="279.13" y="1920" as="sourcePoint" />
            <mxPoint x="279.13" y="1880" as="targetPoint" />
          </mxGeometry>
        </mxCell>
        <mxCell id="zvVPhW93EorZRx8h_Ae8-406" value="" style="endArrow=none;html=1;rounded=0;strokeWidth=3;" edge="1" parent="1">
          <mxGeometry width="50" height="50" relative="1" as="geometry">
            <mxPoint x="279.13" y="1880" as="sourcePoint" />
            <mxPoint x="120" y="1880" as="targetPoint" />
          </mxGeometry>
        </mxCell>
        <mxCell id="zvVPhW93EorZRx8h_Ae8-407" value="" style="endArrow=none;html=1;rounded=0;strokeWidth=3;" edge="1" parent="1">
          <mxGeometry width="50" height="50" relative="1" as="geometry">
            <mxPoint x="359.13" y="2000" as="sourcePoint" />
            <mxPoint x="359.13" y="1960" as="targetPoint" />
          </mxGeometry>
        </mxCell>
        <mxCell id="zvVPhW93EorZRx8h_Ae8-408" value="" style="endArrow=none;html=1;rounded=0;strokeWidth=3;" edge="1" parent="1">
          <mxGeometry width="50" height="50" relative="1" as="geometry">
            <mxPoint x="359.13" y="2000" as="sourcePoint" />
            <mxPoint x="359.13" y="1960" as="targetPoint" />
          </mxGeometry>
        </mxCell>
        <mxCell id="zvVPhW93EorZRx8h_Ae8-409" value="" style="endArrow=none;html=1;rounded=0;strokeWidth=3;" edge="1" parent="1">
          <mxGeometry width="50" height="50" relative="1" as="geometry">
            <mxPoint x="359.13" y="1960" as="sourcePoint" />
            <mxPoint x="120" y="1960" as="targetPoint" />
          </mxGeometry>
        </mxCell>
        <mxCell id="zvVPhW93EorZRx8h_Ae8-410" value="" style="endArrow=none;html=1;rounded=0;strokeWidth=3;" edge="1" parent="1">
          <mxGeometry width="50" height="50" relative="1" as="geometry">
            <mxPoint x="439.13" y="2080" as="sourcePoint" />
            <mxPoint x="439.13" y="2040" as="targetPoint" />
          </mxGeometry>
        </mxCell>
        <mxCell id="zvVPhW93EorZRx8h_Ae8-411" value="" style="endArrow=none;html=1;rounded=0;strokeWidth=3;" edge="1" parent="1">
          <mxGeometry width="50" height="50" relative="1" as="geometry">
            <mxPoint x="439.13" y="2080" as="sourcePoint" />
            <mxPoint x="439.13" y="2040" as="targetPoint" />
          </mxGeometry>
        </mxCell>
        <mxCell id="zvVPhW93EorZRx8h_Ae8-412" value="" style="endArrow=none;html=1;rounded=0;strokeWidth=3;" edge="1" parent="1">
          <mxGeometry width="50" height="50" relative="1" as="geometry">
            <mxPoint x="439.13" y="2040" as="sourcePoint" />
            <mxPoint x="120" y="2040" as="targetPoint" />
          </mxGeometry>
        </mxCell>
        <mxCell id="zvVPhW93EorZRx8h_Ae8-413" value="" style="endArrow=none;html=1;rounded=0;strokeWidth=3;" edge="1" parent="1">
          <mxGeometry width="50" height="50" relative="1" as="geometry">
            <mxPoint x="519.13" y="2160" as="sourcePoint" />
            <mxPoint x="519.13" y="2120" as="targetPoint" />
          </mxGeometry>
        </mxCell>
        <mxCell id="zvVPhW93EorZRx8h_Ae8-414" value="" style="endArrow=none;html=1;rounded=0;strokeWidth=3;" edge="1" parent="1">
          <mxGeometry width="50" height="50" relative="1" as="geometry">
            <mxPoint x="519.13" y="2160" as="sourcePoint" />
            <mxPoint x="519.13" y="2120" as="targetPoint" />
          </mxGeometry>
        </mxCell>
        <mxCell id="zvVPhW93EorZRx8h_Ae8-415" value="" style="endArrow=none;html=1;rounded=0;strokeWidth=3;" edge="1" parent="1">
          <mxGeometry width="50" height="50" relative="1" as="geometry">
            <mxPoint x="519.13" y="2120" as="sourcePoint" />
            <mxPoint x="200" y="2120" as="targetPoint" />
          </mxGeometry>
        </mxCell>
        <mxCell id="zvVPhW93EorZRx8h_Ae8-416" value="" style="endArrow=none;html=1;rounded=0;strokeWidth=3;" edge="1" parent="1">
          <mxGeometry width="50" height="50" relative="1" as="geometry">
            <mxPoint x="200" y="2160" as="sourcePoint" />
            <mxPoint x="200" y="2120" as="targetPoint" />
          </mxGeometry>
        </mxCell>
        <mxCell id="zvVPhW93EorZRx8h_Ae8-417" value="" style="endArrow=none;html=1;rounded=0;strokeWidth=3;" edge="1" parent="1">
          <mxGeometry width="50" height="50" relative="1" as="geometry">
            <mxPoint x="200" y="2160" as="sourcePoint" />
            <mxPoint x="200" y="2120" as="targetPoint" />
          </mxGeometry>
        </mxCell>
        <mxCell id="zvVPhW93EorZRx8h_Ae8-418" value="" style="endArrow=none;html=1;rounded=0;strokeWidth=3;" edge="1" parent="1">
          <mxGeometry width="50" height="50" relative="1" as="geometry">
            <mxPoint x="200" y="2160" as="sourcePoint" />
            <mxPoint x="120" y="2160" as="targetPoint" />
          </mxGeometry>
        </mxCell>
        <mxCell id="zvVPhW93EorZRx8h_Ae8-419" value="&lt;font style=&quot;font-size: 18px;&quot;&gt;&lt;b&gt;Skew[0]&lt;/b&gt;&lt;/font&gt;" style="text;html=1;align=center;verticalAlign=middle;whiteSpace=wrap;rounded=0;container=0;fontColor=#B5739D;fontStyle=2" vertex="1" parent="1">
          <mxGeometry x="50" y="1565" width="60" height="30" as="geometry" />
        </mxCell>
        <mxCell id="zvVPhW93EorZRx8h_Ae8-420" value="&lt;font style=&quot;font-size: 18px;&quot;&gt;&lt;b&gt;Skew[1]&lt;/b&gt;&lt;/font&gt;" style="text;html=1;align=center;verticalAlign=middle;whiteSpace=wrap;rounded=0;container=0;fontColor=#B5739D;fontStyle=2" vertex="1" parent="1">
          <mxGeometry x="50" y="1645" width="60" height="30" as="geometry" />
        </mxCell>
        <mxCell id="zvVPhW93EorZRx8h_Ae8-421" value="&lt;font style=&quot;font-size: 18px;&quot;&gt;&lt;b&gt;Skew[2]&lt;/b&gt;&lt;/font&gt;" style="text;html=1;align=center;verticalAlign=middle;whiteSpace=wrap;rounded=0;container=0;fontColor=#B5739D;fontStyle=2" vertex="1" parent="1">
          <mxGeometry x="50" y="1725" width="60" height="30" as="geometry" />
        </mxCell>
        <mxCell id="zvVPhW93EorZRx8h_Ae8-422" value="&lt;font style=&quot;font-size: 18px;&quot;&gt;&lt;b&gt;Skew[3]&lt;/b&gt;&lt;/font&gt;" style="text;html=1;align=center;verticalAlign=middle;whiteSpace=wrap;rounded=0;container=0;fontColor=#B5739D;fontStyle=2" vertex="1" parent="1">
          <mxGeometry x="50" y="1805" width="60" height="30" as="geometry" />
        </mxCell>
        <mxCell id="zvVPhW93EorZRx8h_Ae8-423" value="&lt;font style=&quot;font-size: 18px;&quot;&gt;&lt;b&gt;Skew[4]&lt;/b&gt;&lt;/font&gt;" style="text;html=1;align=center;verticalAlign=middle;whiteSpace=wrap;rounded=0;container=0;fontColor=#B5739D;fontStyle=2" vertex="1" parent="1">
          <mxGeometry x="50" y="1885" width="60" height="30" as="geometry" />
        </mxCell>
        <mxCell id="zvVPhW93EorZRx8h_Ae8-424" value="&lt;font style=&quot;font-size: 18px;&quot;&gt;&lt;b&gt;Skew[5]&lt;/b&gt;&lt;/font&gt;" style="text;html=1;align=center;verticalAlign=middle;whiteSpace=wrap;rounded=0;container=0;fontColor=#B5739D;fontStyle=2" vertex="1" parent="1">
          <mxGeometry x="50" y="1965" width="60" height="30" as="geometry" />
        </mxCell>
        <mxCell id="zvVPhW93EorZRx8h_Ae8-425" value="&lt;font style=&quot;font-size: 18px;&quot;&gt;&lt;b&gt;Skew[6]&lt;/b&gt;&lt;/font&gt;" style="text;html=1;align=center;verticalAlign=middle;whiteSpace=wrap;rounded=0;container=0;fontColor=#B5739D;fontStyle=2" vertex="1" parent="1">
          <mxGeometry x="50" y="2045" width="60" height="30" as="geometry" />
        </mxCell>
        <mxCell id="zvVPhW93EorZRx8h_Ae8-426" value="&lt;font style=&quot;font-size: 18px;&quot;&gt;&lt;b&gt;Skew[7]&lt;/b&gt;&lt;/font&gt;" style="text;html=1;align=center;verticalAlign=middle;whiteSpace=wrap;rounded=0;container=0;fontColor=#B5739D;fontStyle=2" vertex="1" parent="1">
          <mxGeometry x="50" y="2125" width="60" height="30" as="geometry" />
        </mxCell>
        <mxCell id="zvVPhW93EorZRx8h_Ae8-432" value="" style="group" vertex="1" connectable="0" parent="1">
          <mxGeometry x="600" y="1200" width="80" height="40" as="geometry" />
        </mxCell>
        <mxCell id="zvVPhW93EorZRx8h_Ae8-433" value="" style="rounded=0;whiteSpace=wrap;html=1;fillColor=#6666FF;strokeColor=none;opacity=30;" vertex="1" parent="zvVPhW93EorZRx8h_Ae8-432">
          <mxGeometry width="80" height="40" as="geometry" />
        </mxCell>
        <mxCell id="zvVPhW93EorZRx8h_Ae8-434" value="&lt;b&gt;&lt;font style=&quot;color: rgb(255, 0, 255); font-size: 36px;&quot;&gt;1UI&lt;/font&gt;&lt;/b&gt;" style="text;html=1;align=center;verticalAlign=middle;whiteSpace=wrap;rounded=0;" vertex="1" parent="zvVPhW93EorZRx8h_Ae8-432">
          <mxGeometry x="10" y="5" width="60" height="30" as="geometry" />
        </mxCell>
        <mxCell id="zvVPhW93EorZRx8h_Ae8-435" value="" style="group" vertex="1" connectable="0" parent="1">
          <mxGeometry x="680" y="1280" width="80" height="40" as="geometry" />
        </mxCell>
        <mxCell id="zvVPhW93EorZRx8h_Ae8-436" value="" style="rounded=0;whiteSpace=wrap;html=1;fillColor=#6666FF;strokeColor=none;opacity=30;" vertex="1" parent="zvVPhW93EorZRx8h_Ae8-435">
          <mxGeometry width="80" height="40" as="geometry" />
        </mxCell>
        <mxCell id="zvVPhW93EorZRx8h_Ae8-437" value="&lt;b&gt;&lt;font style=&quot;color: rgb(255, 0, 255); font-size: 36px;&quot;&gt;1UI&lt;/font&gt;&lt;/b&gt;" style="text;html=1;align=center;verticalAlign=middle;whiteSpace=wrap;rounded=0;" vertex="1" parent="zvVPhW93EorZRx8h_Ae8-435">
          <mxGeometry x="10" y="5" width="60" height="30" as="geometry" />
        </mxCell>
        <mxCell id="zvVPhW93EorZRx8h_Ae8-438" value="" style="group" vertex="1" connectable="0" parent="1">
          <mxGeometry x="760" y="1360" width="80" height="40" as="geometry" />
        </mxCell>
        <mxCell id="zvVPhW93EorZRx8h_Ae8-439" value="" style="rounded=0;whiteSpace=wrap;html=1;fillColor=#6666FF;strokeColor=none;opacity=30;" vertex="1" parent="zvVPhW93EorZRx8h_Ae8-438">
          <mxGeometry width="80" height="40" as="geometry" />
        </mxCell>
        <mxCell id="zvVPhW93EorZRx8h_Ae8-440" value="&lt;b&gt;&lt;font style=&quot;color: rgb(255, 0, 255); font-size: 36px;&quot;&gt;1UI&lt;/font&gt;&lt;/b&gt;" style="text;html=1;align=center;verticalAlign=middle;whiteSpace=wrap;rounded=0;" vertex="1" parent="zvVPhW93EorZRx8h_Ae8-438">
          <mxGeometry x="10" y="5" width="60" height="30" as="geometry" />
        </mxCell>
        <mxCell id="zvVPhW93EorZRx8h_Ae8-441" value="" style="group" vertex="1" connectable="0" parent="1">
          <mxGeometry x="840" y="1440" width="80" height="40" as="geometry" />
        </mxCell>
        <mxCell id="zvVPhW93EorZRx8h_Ae8-442" value="" style="rounded=0;whiteSpace=wrap;html=1;fillColor=#6666FF;strokeColor=none;opacity=30;" vertex="1" parent="zvVPhW93EorZRx8h_Ae8-441">
          <mxGeometry width="80" height="40" as="geometry" />
        </mxCell>
        <mxCell id="zvVPhW93EorZRx8h_Ae8-443" value="&lt;b&gt;&lt;font style=&quot;color: rgb(255, 0, 255); font-size: 36px;&quot;&gt;1UI&lt;/font&gt;&lt;/b&gt;" style="text;html=1;align=center;verticalAlign=middle;whiteSpace=wrap;rounded=0;" vertex="1" parent="zvVPhW93EorZRx8h_Ae8-441">
          <mxGeometry x="10" y="5" width="60" height="30" as="geometry" />
        </mxCell>
        <mxCell id="zvVPhW93EorZRx8h_Ae8-444" value="" style="group" vertex="1" connectable="0" parent="1">
          <mxGeometry x="920" y="1560" width="80" height="40" as="geometry" />
        </mxCell>
        <mxCell id="zvVPhW93EorZRx8h_Ae8-445" value="" style="rounded=0;whiteSpace=wrap;html=1;fillColor=#6666FF;strokeColor=none;opacity=30;" vertex="1" parent="zvVPhW93EorZRx8h_Ae8-444">
          <mxGeometry width="80" height="40" as="geometry" />
        </mxCell>
        <mxCell id="zvVPhW93EorZRx8h_Ae8-446" value="&lt;b&gt;&lt;font style=&quot;color: rgb(255, 0, 255); font-size: 36px;&quot;&gt;1UI&lt;/font&gt;&lt;/b&gt;" style="text;html=1;align=center;verticalAlign=middle;whiteSpace=wrap;rounded=0;" vertex="1" parent="zvVPhW93EorZRx8h_Ae8-444">
          <mxGeometry x="10" y="5" width="60" height="30" as="geometry" />
        </mxCell>
        <mxCell id="zvVPhW93EorZRx8h_Ae8-447" value="" style="group" vertex="1" connectable="0" parent="1">
          <mxGeometry x="1000" y="1640" width="80" height="40" as="geometry" />
        </mxCell>
        <mxCell id="zvVPhW93EorZRx8h_Ae8-448" value="" style="rounded=0;whiteSpace=wrap;html=1;fillColor=#6666FF;strokeColor=none;opacity=30;" vertex="1" parent="zvVPhW93EorZRx8h_Ae8-447">
          <mxGeometry width="80" height="40" as="geometry" />
        </mxCell>
        <mxCell id="zvVPhW93EorZRx8h_Ae8-449" value="&lt;b&gt;&lt;font style=&quot;color: rgb(255, 0, 255); font-size: 36px;&quot;&gt;1UI&lt;/font&gt;&lt;/b&gt;" style="text;html=1;align=center;verticalAlign=middle;whiteSpace=wrap;rounded=0;" vertex="1" parent="zvVPhW93EorZRx8h_Ae8-447">
          <mxGeometry x="10" y="5" width="60" height="30" as="geometry" />
        </mxCell>
        <mxCell id="zvVPhW93EorZRx8h_Ae8-450" value="" style="group" vertex="1" connectable="0" parent="1">
          <mxGeometry x="1080" y="1720" width="80" height="40" as="geometry" />
        </mxCell>
        <mxCell id="zvVPhW93EorZRx8h_Ae8-451" value="" style="rounded=0;whiteSpace=wrap;html=1;fillColor=#6666FF;strokeColor=none;opacity=30;" vertex="1" parent="zvVPhW93EorZRx8h_Ae8-450">
          <mxGeometry width="80" height="40" as="geometry" />
        </mxCell>
        <mxCell id="zvVPhW93EorZRx8h_Ae8-452" value="&lt;b&gt;&lt;font style=&quot;color: rgb(255, 0, 255); font-size: 36px;&quot;&gt;1UI&lt;/font&gt;&lt;/b&gt;" style="text;html=1;align=center;verticalAlign=middle;whiteSpace=wrap;rounded=0;" vertex="1" parent="zvVPhW93EorZRx8h_Ae8-450">
          <mxGeometry x="10" y="5" width="60" height="30" as="geometry" />
        </mxCell>
        <mxCell id="zvVPhW93EorZRx8h_Ae8-453" value="" style="group" vertex="1" connectable="0" parent="1">
          <mxGeometry x="1160" y="1800" width="80" height="40" as="geometry" />
        </mxCell>
        <mxCell id="zvVPhW93EorZRx8h_Ae8-454" value="" style="rounded=0;whiteSpace=wrap;html=1;fillColor=#6666FF;strokeColor=none;opacity=30;" vertex="1" parent="zvVPhW93EorZRx8h_Ae8-453">
          <mxGeometry width="80" height="40" as="geometry" />
        </mxCell>
        <mxCell id="zvVPhW93EorZRx8h_Ae8-455" value="&lt;b&gt;&lt;font style=&quot;color: rgb(255, 0, 255); font-size: 36px;&quot;&gt;1UI&lt;/font&gt;&lt;/b&gt;" style="text;html=1;align=center;verticalAlign=middle;whiteSpace=wrap;rounded=0;" vertex="1" parent="zvVPhW93EorZRx8h_Ae8-453">
          <mxGeometry x="10" y="5" width="60" height="30" as="geometry" />
        </mxCell>
        <mxCell id="zvVPhW93EorZRx8h_Ae8-456" value="&lt;font style=&quot;color: rgb(0, 153, 0); font-size: 32px;&quot;&gt;&lt;b style=&quot;&quot;&gt;8x8G&lt;/b&gt;&lt;/font&gt;" style="text;html=1;align=center;verticalAlign=middle;whiteSpace=wrap;rounded=0;" vertex="1" parent="1">
          <mxGeometry x="20" y="1850" width="60" height="30" as="geometry" />
        </mxCell>
      </root>
    </mxGraphModel>
  </diagram>
</mxfile>
